<?xml version="1.0" encoding="utf-8"?>
<!-- Generator: Adobe Illustrator 27.5.0, SVG Export Plug-In . SVG Version: 6.00 Build 0)  -->
<svg version="1.1" id="Шар_1" xmlns="http://www.w3.org/2000/svg" xmlns:xlink="http://www.w3.org/1999/xlink" x="0px" y="0px"
	 viewBox="0 0 640 480" style="enable-background:new 0 0 640 480;" xml:space="preserve">
<style type="text/css">
	.st0{enable-background:new    ;}
	.st1{fill:#004923;}
	.st2{clip-path:url(#SVGID_00000090999015175170931510000003362035405514930356_);enable-background:new    ;}
	.st3{fill:#00602E;}
	.st4{fill:#005D2C;}
	.st5{fill:#005B2B;}
	.st6{fill:#005528;}
	.st7{clip-path:url(#SVGID_00000077305905570678403940000011889945735559874438_);enable-background:new    ;}
	.st8{fill:#004F25;}
	.st9{fill:#005227;}
	.st10{clip-path:url(#SVGID_00000054958660145296387400000009339401036910434726_);enable-background:new    ;}
	.st11{clip-path:url(#SVGID_00000159440598391631013750000011102179914584786063_);enable-background:new    ;}
	.st12{clip-path:url(#SVGID_00000170965867756954821590000017569497945908374934_);enable-background:new    ;}
	.st13{clip-path:url(#SVGID_00000139268829448282453920000002672507736847829905_);enable-background:new    ;}
	.st14{clip-path:url(#SVGID_00000147219084597593497340000007036621104583613607_);enable-background:new    ;}
	.st15{fill:#005829;}
	.st16{clip-path:url(#SVGID_00000037675238731216739820000015657868928108886918_);enable-background:new    ;}
	.st17{clip-path:url(#SVGID_00000098902607769421175590000004695858306925042848_);enable-background:new    ;}
	.st18{fill:#004C24;}
	.st19{clip-path:url(#SVGID_00000005259053602478588230000000666947881421364376_);enable-background:new    ;}
	.st20{clip-path:url(#SVGID_00000000210753395616956710000001493521025355510430_);enable-background:new    ;}
	.st21{clip-path:url(#SVGID_00000033360526580225466870000018185574380331777692_);enable-background:new    ;}
	.st22{clip-path:url(#SVGID_00000105405831661473887960000013742787821200706471_);enable-background:new    ;}
	.st23{clip-path:url(#SVGID_00000090975103226376606770000009179987307749200295_);enable-background:new    ;}
	.st24{clip-path:url(#SVGID_00000039850489869141355470000004399650543630320063_);enable-background:new    ;}
	.st25{clip-path:url(#SVGID_00000011741131671314020060000008338337787814200206_);enable-background:new    ;}
	.st26{clip-path:url(#SVGID_00000109709024680360552630000008666184521010335115_);enable-background:new    ;}
	.st27{clip-path:url(#SVGID_00000047024413717543251430000003205433258154183828_);enable-background:new    ;}
	.st28{clip-path:url(#SVGID_00000111889721496752754620000005591750888901945263_);enable-background:new    ;}
	.st29{clip-path:url(#SVGID_00000093891034451616253670000007130963163370989187_);enable-background:new    ;}
	.st30{clip-path:url(#SVGID_00000008869888088362856360000000131629980516377009_);enable-background:new    ;}
	.st31{fill:#00813D;}
	.st32{clip-path:url(#SVGID_00000165199314609378494190000018269607085579939986_);enable-background:new    ;}
	.st33{clip-path:url(#SVGID_00000108296639686698817570000013893060816421601210_);enable-background:new    ;}
</style>
<g>
	<g>
		<g class="st0">
			<g>
				<path class="st1" d="M307.99,349.25c-0.13,0.19-0.26,0.38-0.41,0.57C307.73,349.63,307.86,349.44,307.99,349.25z"/>
			</g>
			<g>
				<path class="st1" d="M299.12,352.06c-0.06-0.03-0.11-0.07-0.17-0.1C299,351.99,299.06,352.02,299.12,352.06z"/>
			</g>
			<g>
				<path class="st1" d="M298.95,351.95c-0.11-0.06-0.21-0.13-0.32-0.2C298.73,351.82,298.84,351.89,298.95,351.95z"/>
			</g>
			<g>
				<path class="st1" d="M298.63,351.75c-0.06-0.04-0.12-0.09-0.19-0.14C298.5,351.66,298.57,351.71,298.63,351.75z"/>
			</g>
			<g>
				<path class="st1" d="M298.44,351.61c-0.1-0.07-0.2-0.15-0.29-0.24C298.24,351.46,298.34,351.54,298.44,351.61z"/>
			</g>
			<g>
				<path class="st1" d="M298.15,351.38c-0.05-0.04-0.1-0.09-0.15-0.13C298.05,351.29,298.1,351.33,298.15,351.38z"/>
			</g>
			<g>
				<path class="st1" d="M298,351.25c-0.14-0.13-0.28-0.27-0.41-0.42C297.72,350.98,297.85,351.11,298,351.25z"/>
			</g>
			<g class="st0">
				<defs>
					<path id="SVGID_1_" class="st0" d="M457.45,57.1l29.77,14.79c-1.08-0.53-2.26-0.7-3.42-0.54l-29.77-14.79
						C455.19,56.4,456.37,56.56,457.45,57.1z"/>
				</defs>
				<clipPath id="SVGID_00000072997053427043259570000014221558235872230289_">
					<use xlink:href="#SVGID_1_"  style="overflow:visible;"/>
				</clipPath>
				<g style="clip-path:url(#SVGID_00000072997053427043259570000014221558235872230289_);enable-background:new    ;">
					<path class="st3" d="M483.79,71.35l-29.77-14.79c0.41-0.06,0.83-0.07,1.24-0.05l29.77,14.79
						C484.62,71.27,484.21,71.29,483.79,71.35"/>
					<path class="st4" d="M485.03,71.3l-29.77-14.79c0.59,0.04,1.18,0.17,1.74,0.39l29.77,14.79
						C486.21,71.46,485.62,71.34,485.03,71.3"/>
					<path class="st5" d="M486.77,71.69L457.01,56.9c0.15,0.06,0.3,0.12,0.44,0.2l29.77,14.79
						C487.07,71.81,486.92,71.75,486.77,71.69"/>
				</g>
			</g>
			<g>
				<polygon class="st6" points="338.14,363.39 308.37,348.6 308.46,348.44 338.23,363.23 				"/>
			</g>
			<g class="st0">
				<defs>
					<polygon id="SVGID_00000164501462771879823060000010217283061772094863_" class="st0" points="338.14,363.4 308.37,348.61 
						308.37,348.6 338.14,363.39 					"/>
				</defs>
				<clipPath id="SVGID_00000098919793119951818080000016476677015202241423_">
					<use xlink:href="#SVGID_00000164501462771879823060000010217283061772094863_"  style="overflow:visible;"/>
				</clipPath>
				<g style="clip-path:url(#SVGID_00000098919793119951818080000016476677015202241423_);enable-background:new    ;">
					<polyline class="st8" points="338.14,363.4 308.37,348.61 308.37,348.61 338.14,363.4 338.14,363.4 					"/>
					<polyline class="st9" points="338.14,363.4 308.37,348.61 308.37,348.6 338.14,363.39 338.14,363.4 					"/>
					<polyline class="st8" points="338.14,363.39 308.37,348.6 308.37,348.6 338.14,363.39 338.14,363.39 					"/>
				</g>
			</g>
			<g>
				<path class="st1" d="M338.23,363.23c-0.03,0.06-0.06,0.11-0.09,0.17c0,0,0-0.01,0.01-0.01L338.23,363.23z"/>
			</g>
			<g class="st0">
				<defs>
					<path id="SVGID_00000151509869792934039540000018331136085444085655_" class="st0" d="M337.77,364.01l-29.77-14.79
						c0.13-0.2,0.25-0.4,0.36-0.61l29.77,14.79C338.02,363.61,337.9,363.81,337.77,364.01z"/>
				</defs>
				<clipPath id="SVGID_00000115511050782657468450000013582618206294292927_">
					<use xlink:href="#SVGID_00000151509869792934039540000018331136085444085655_"  style="overflow:visible;"/>
				</clipPath>
				<g style="clip-path:url(#SVGID_00000115511050782657468450000013582618206294292927_);enable-background:new    ;">
					<path class="st9" d="M337.77,364.01l-29.77-14.79c0.08-0.12,0.15-0.24,0.23-0.37L338,363.64
						C337.93,363.77,337.85,363.89,337.77,364.01"/>
					<path class="st8" d="M338,363.64l-29.77-14.79c0.05-0.08,0.09-0.16,0.14-0.24l29.77,14.79
						C338.09,363.48,338.05,363.56,338,363.64"/>
				</g>
			</g>
			<g>
				<path class="st1" d="M337.77,364.01c0.13-0.2,0.25-0.4,0.36-0.61C338.02,363.61,337.9,363.81,337.77,364.01z"/>
			</g>
			<g>
				<path class="st1" d="M337.76,364.03c0-0.01,0.01-0.01,0.02-0.02C337.77,364.02,337.76,364.03,337.76,364.03z"/>
			</g>
			<g class="st0">
				<defs>
					<path id="SVGID_00000080899018903474593700000010465292002463670145_" class="st0" d="M337.76,364.03l-29.77-14.79
						c0-0.01,0.01-0.01,0.02-0.02l29.77,14.79C337.77,364.02,337.76,364.03,337.76,364.03z"/>
				</defs>
				<clipPath id="SVGID_00000049911381852144540620000014615350193645771961_">
					<use xlink:href="#SVGID_00000080899018903474593700000010465292002463670145_"  style="overflow:visible;"/>
				</clipPath>
				<g style="clip-path:url(#SVGID_00000049911381852144540620000014615350193645771961_);enable-background:new    ;">
					<path class="st9" d="M337.76,364.03l-29.77-14.79c0-0.01,0.01-0.01,0.02-0.02l29.77,14.79
						C337.77,364.02,337.76,364.03,337.76,364.03"/>
				</g>
			</g>
			<g class="st0">
				<defs>
					<path id="SVGID_00000169541757515133157950000004565110603875787410_" class="st0" d="M307.59,349.82
						c0.14-0.18,0.28-0.37,0.41-0.57l29.77,14.79c-0.13,0.2-0.26,0.39-0.41,0.57C327.43,359.67,317.51,354.74,307.59,349.82z"/>
				</defs>
				<clipPath id="SVGID_00000123402654228577112470000000945972711653049530_">
					<use xlink:href="#SVGID_00000169541757515133157950000004565110603875787410_"  style="overflow:visible;"/>
				</clipPath>
				<g style="clip-path:url(#SVGID_00000123402654228577112470000000945972711653049530_);enable-background:new    ;">
					<path class="st6" d="M337.35,364.6l-29.77-14.79c0.01-0.01,0.02-0.02,0.03-0.04l29.77,14.79
						C337.37,364.58,337.36,364.59,337.35,364.6"/>
					<path class="st9" d="M337.38,364.57l-29.77-14.79c0.13-0.17,0.26-0.35,0.38-0.53l29.77,14.79
						C337.64,364.22,337.51,364.39,337.38,364.57"/>
				</g>
			</g>
			<g>
				<path class="st1" d="M335.13,366.57c-0.51,0.3-1.04,0.54-1.57,0.7C334.1,367.11,334.63,366.87,335.13,366.57z"/>
			</g>
			<g class="st0">
				<defs>
					<path id="SVGID_00000097485882248527277270000002550052609756512946_" class="st0" d="M303.8,352.49
						c0.54-0.17,1.07-0.4,1.57-0.7l29.77,14.79c-0.5,0.3-1.03,0.53-1.57,0.7c-9.89-4.91-19.78-9.83-29.67-14.74
						c9.89,4.91,19.78,9.83,29.67,14.74c0,0,0,0,0,0C324.63,362.84,312.73,356.92,303.8,352.49z"/>
				</defs>
				<clipPath id="SVGID_00000181074495459784281420000002735469917795985596_">
					<use xlink:href="#SVGID_00000097485882248527277270000002550052609756512946_"  style="overflow:visible;"/>
				</clipPath>
				<g style="clip-path:url(#SVGID_00000181074495459784281420000002735469917795985596_);enable-background:new    ;">
					<path class="st4" d="M333.56,367.27l-29.77-14.79c0.45-0.14,0.9-0.33,1.33-0.56l29.77,14.79
						C334.46,366.95,334.02,367.13,333.56,367.27"/>
					<path class="st5" d="M334.89,366.71l-29.77-14.79c0.08-0.04,0.16-0.09,0.24-0.14l29.77,14.79
						C335.05,366.62,334.97,366.67,334.89,366.71"/>
				</g>
			</g>
			<g class="st0">
				<defs>
					<path id="SVGID_00000122695770438080165660000004176773655105609402_" class="st0" d="M478.19,75.46l-29.77-14.79
						c1.26-2.33,3.4-3.81,5.61-4.11l29.77,14.79C481.59,71.65,479.44,73.12,478.19,75.46z"/>
				</defs>
				<clipPath id="SVGID_00000088840838073742272030000004134978020333604798_">
					<use xlink:href="#SVGID_00000122695770438080165660000004176773655105609402_"  style="overflow:visible;"/>
				</clipPath>
				<g style="clip-path:url(#SVGID_00000088840838073742272030000004134978020333604798_);enable-background:new    ;">
					<path class="st8" d="M478.19,75.46l-29.77-14.79c0.05-0.08,0.09-0.17,0.14-0.25l29.77,14.79
						C478.28,75.29,478.23,75.37,478.19,75.46"/>
					<path class="st9" d="M478.33,75.21l-29.77-14.79c0.19-0.33,0.4-0.63,0.62-0.92l29.77,14.79
						C478.72,74.57,478.52,74.88,478.33,75.21"/>
					<path class="st6" d="M478.94,74.28L449.18,59.5c0.21-0.28,0.44-0.54,0.68-0.78l29.77,14.79
						C479.39,73.74,479.16,74,478.94,74.28"/>
					<path class="st15" d="M479.63,73.5l-29.77-14.79c0.25-0.26,0.52-0.49,0.8-0.71l29.77,14.79
						C480.15,73.01,479.88,73.25,479.63,73.5"/>
					<path class="st5" d="M480.42,72.8l-29.77-14.79c0.33-0.25,0.67-0.47,1.02-0.67l29.77,14.79
						C481.09,72.32,480.75,72.54,480.42,72.8"/>
					<path class="st4" d="M481.44,72.13l-29.77-14.79c0.58-0.31,1.19-0.55,1.8-0.69l29.77,14.79
						C482.63,71.58,482.02,71.82,481.44,72.13"/>
					<path class="st3" d="M483.25,71.44l-29.77-14.79c0.18-0.04,0.36-0.07,0.55-0.1l29.77,14.79
						C483.61,71.37,483.43,71.4,483.25,71.44"/>
				</g>
			</g>
			<g class="st0">
				<defs>
					<path id="SVGID_00000168079355994675092980000007171443934833502382_" class="st0" d="M329.11,366.96l-29.77-14.79
						c0.1,0.05,0.21,0.1,0.31,0.14l29.77,14.79C329.32,367.06,329.21,367.01,329.11,366.96z"/>
				</defs>
				<clipPath id="SVGID_00000108990298552664538800000003968439349821128888_">
					<use xlink:href="#SVGID_00000168079355994675092980000007171443934833502382_"  style="overflow:visible;"/>
				</clipPath>
				<g style="clip-path:url(#SVGID_00000108990298552664538800000003968439349821128888_);enable-background:new    ;">
					<path class="st5" d="M329.11,366.96l-29.77-14.79c0.1,0.05,0.21,0.1,0.31,0.14l29.77,14.79
						C329.32,367.06,329.21,367.01,329.11,366.96"/>
				</g>
			</g>
			<g class="st0">
				<defs>
					<path id="SVGID_00000145777469371935789780000000372074707937516950_" class="st0" d="M329.12,366.97l-29.77-14.79
						c-0.08-0.04-0.16-0.08-0.23-0.12l29.77,14.79C328.96,366.89,329.04,366.93,329.12,366.97z"/>
				</defs>
				<clipPath id="SVGID_00000127737854850554627480000010616125067555825302_">
					<use xlink:href="#SVGID_00000145777469371935789780000000372074707937516950_"  style="overflow:visible;"/>
				</clipPath>
				<g style="clip-path:url(#SVGID_00000127737854850554627480000010616125067555825302_);enable-background:new    ;">
					<path class="st18" d="M329.12,366.97l-29.77-14.79c-0.08-0.04-0.16-0.08-0.23-0.12l29.77,14.79
						C328.96,366.89,329.04,366.93,329.12,366.97"/>
				</g>
			</g>
			<g>
				<path class="st1" d="M328.89,366.85c0.17,0.1,0.35,0.18,0.53,0.26C329.24,367.03,329.06,366.94,328.89,366.85
					C328.89,366.84,328.89,366.85,328.89,366.85z"/>
			</g>
			<g class="st0">
				<defs>
					<path id="SVGID_00000046317423312391568730000014448279583189737093_" class="st0" d="M329.52,367.15l-29.77-14.79
						c-1.22-0.62-1.74-1.04-2.17-1.53c-1.88-2.12-2.21-5.56-0.62-8.52l29.77,14.79c-1.59,2.96-1.26,6.4,0.62,8.52
						C327.79,366.1,328.3,366.52,329.52,367.15z"/>
				</defs>
				<clipPath id="SVGID_00000174601035760421835270000005351312797590348433_">
					<use xlink:href="#SVGID_00000046317423312391568730000014448279583189737093_"  style="overflow:visible;"/>
				</clipPath>
				<g style="clip-path:url(#SVGID_00000174601035760421835270000005351312797590348433_);enable-background:new    ;">
					<path class="st18" d="M329.52,367.15l-29.77-14.79c-1.22-0.62-1.74-1.04-2.17-1.53c-1.68-1.9-2.13-4.86-1.06-7.58l29.77,14.79
						c-1.07,2.72-0.63,5.68,1.06,7.58C327.79,366.1,328.3,366.52,329.52,367.15"/>
					<path class="st8" d="M326.3,358.03l-29.77-14.79c0.12-0.32,0.27-0.63,0.43-0.94l29.77,14.79
						C326.57,357.4,326.42,357.72,326.3,358.03"/>
				</g>
			</g>
			<g class="st0">
				<defs>
					<path id="SVGID_00000118387220841610244820000005445962425491956664_" class="st0" d="M328.89,366.84l-29.77-14.79
						c-0.06-0.03-0.11-0.07-0.17-0.1l29.77,14.79C328.77,366.77,328.83,366.81,328.89,366.84z"/>
				</defs>
				<clipPath id="SVGID_00000173157077334365702320000009340046162673663914_">
					<use xlink:href="#SVGID_00000118387220841610244820000005445962425491956664_"  style="overflow:visible;"/>
				</clipPath>
				<g style="clip-path:url(#SVGID_00000173157077334365702320000009340046162673663914_);enable-background:new    ;">
					<path class="st18" d="M328.89,366.84l-29.77-14.79c-0.06-0.03-0.11-0.07-0.17-0.1l29.77,14.79
						C328.77,366.77,328.83,366.81,328.89,366.84"/>
				</g>
			</g>
			<g class="st0">
				<defs>
					<path id="SVGID_00000100356046249207461410000018193195520436944034_" class="st0" d="M328.71,366.74l-29.77-14.79
						c-0.11-0.06-0.21-0.13-0.32-0.2l29.77,14.79C328.5,366.61,328.61,366.67,328.71,366.74z"/>
				</defs>
				<clipPath id="SVGID_00000137110258738759441280000010720956342531504549_">
					<use xlink:href="#SVGID_00000100356046249207461410000018193195520436944034_"  style="overflow:visible;"/>
				</clipPath>
				<g style="clip-path:url(#SVGID_00000137110258738759441280000010720956342531504549_);enable-background:new    ;">
					<path class="st18" d="M328.71,366.74l-29.77-14.79c-0.11-0.06-0.21-0.13-0.32-0.2l29.77,14.79
						C328.5,366.61,328.61,366.67,328.71,366.74"/>
				</g>
			</g>
			<g class="st0">
				<defs>
					<path id="SVGID_00000014595815572861317480000009350258735811400594_" class="st0" d="M328.4,366.54l-29.77-14.79
						c-0.06-0.04-0.12-0.09-0.19-0.14l29.77,14.79C328.27,366.45,328.33,366.49,328.4,366.54z"/>
				</defs>
				<clipPath id="SVGID_00000113311977373804057490000010880880972533298833_">
					<use xlink:href="#SVGID_00000014595815572861317480000009350258735811400594_"  style="overflow:visible;"/>
				</clipPath>
				<g style="clip-path:url(#SVGID_00000113311977373804057490000010880880972533298833_);enable-background:new    ;">
					<path class="st18" d="M328.4,366.54l-29.77-14.79c-0.06-0.04-0.12-0.09-0.19-0.14l29.77,14.79
						C328.27,366.45,328.33,366.49,328.4,366.54"/>
				</g>
			</g>
			<g class="st0">
				<defs>
					<path id="SVGID_00000139275311438675577790000007313970714077928614_" class="st0" d="M328.21,366.4l-29.77-14.79
						c-0.1-0.07-0.2-0.15-0.29-0.24l29.77,14.79C328.01,366.25,328.11,366.32,328.21,366.4z"/>
				</defs>
				<clipPath id="SVGID_00000179621094805977462450000005376441276523145392_">
					<use xlink:href="#SVGID_00000139275311438675577790000007313970714077928614_"  style="overflow:visible;"/>
				</clipPath>
				<g style="clip-path:url(#SVGID_00000179621094805977462450000005376441276523145392_);enable-background:new    ;">
					<path class="st18" d="M328.21,366.4l-29.77-14.79c-0.1-0.07-0.2-0.15-0.29-0.24l29.77,14.79
						C328.01,366.25,328.11,366.32,328.21,366.4"/>
				</g>
			</g>
			<g class="st0">
				<defs>
					<path id="SVGID_00000060709293979197390270000017074819362413092792_" class="st0" d="M327.92,366.16l-29.77-14.79
						c-0.05-0.04-0.1-0.09-0.15-0.13l29.77,14.79C327.82,366.08,327.87,366.12,327.92,366.16z"/>
				</defs>
				<clipPath id="SVGID_00000081636230973492007630000013565266929720711845_">
					<use xlink:href="#SVGID_00000060709293979197390270000017074819362413092792_"  style="overflow:visible;"/>
				</clipPath>
				<g style="clip-path:url(#SVGID_00000081636230973492007630000013565266929720711845_);enable-background:new    ;">
					<path class="st18" d="M327.92,366.16l-29.77-14.79c-0.05-0.04-0.1-0.09-0.15-0.13l29.77,14.79
						C327.82,366.08,327.87,366.12,327.92,366.16"/>
				</g>
			</g>
			<g class="st0">
				<defs>
					<path id="SVGID_00000074408113726514064860000009958915617341790907_" class="st0" d="M297.96,351.21
						c9.92,4.93,19.85,9.86,29.77,14.79c0.01,0.01,0.03,0.03,0.04,0.04L298,351.25C297.98,351.23,297.97,351.22,297.96,351.21z"/>
				</defs>
				<clipPath id="SVGID_00000125574099600702761460000016854909875106167958_">
					<use xlink:href="#SVGID_00000074408113726514064860000009958915617341790907_"  style="overflow:visible;"/>
				</clipPath>
				<g style="clip-path:url(#SVGID_00000125574099600702761460000016854909875106167958_);enable-background:new    ;">
					<path class="st18" d="M327.77,366.03L298,351.25c-0.14-0.13-0.28-0.27-0.41-0.42l29.77,14.79
						C327.49,365.76,327.62,365.9,327.77,366.03"/>
				</g>
			</g>
			<g class="st0">
				<defs>
					<path id="SVGID_00000121249128304246313510000013877751552445631406_" class="st0" d="M297.96,351.21
						C297.96,351.21,297.96,351.2,297.96,351.21c2.39,1.18,4.77,2.37,7.16,3.56c2.57,1.28,5.15,2.56,7.72,3.84
						c1.17,0.58,2.73,1.35,3.9,1.93c1.15,0.57,2.68,1.33,3.83,1.9c2.39,1.19,4.77,2.37,7.16,3.56c0,0,0,0,0,0
						c-0.94-0.47-2.19-1.09-3.13-1.56c-1-0.5-2.33-1.16-3.32-1.65c-1.03-0.51-2.41-1.2-3.45-1.71c-1.05-0.52-2.46-1.22-3.51-1.74
						s-2.46-1.22-3.51-1.74c-1.03-0.51-2.41-1.2-3.45-1.71c-1-0.5-2.33-1.16-3.32-1.65c-0.94-0.47-2.19-1.09-3.13-1.56
						c-0.1-0.05-0.24-0.12-0.34-0.17c-0.11-0.05-0.25-0.13-0.36-0.18c-0.11-0.06-0.26-0.13-0.38-0.19
						c-0.12-0.06-0.27-0.13-0.38-0.19c-0.12-0.06-0.27-0.13-0.38-0.19c-0.11-0.06-0.26-0.13-0.38-0.19
						c-0.11-0.05-0.25-0.13-0.36-0.18C298.2,351.33,298.06,351.26,297.96,351.21z"/>
				</defs>
				<clipPath id="SVGID_00000053508413201133952080000013494622160697758080_">
					<use xlink:href="#SVGID_00000121249128304246313510000013877751552445631406_"  style="overflow:visible;"/>
				</clipPath>
				<g style="clip-path:url(#SVGID_00000053508413201133952080000013494622160697758080_);enable-background:new    ;">
					<path class="st18" d="M327.77,366.03L298,351.25c-0.14-0.13-0.28-0.27-0.41-0.42l29.77,14.79
						C327.49,365.76,327.62,365.9,327.77,366.03"/>
				</g>
			</g>
			<g class="st0">
				<defs>
					<path id="SVGID_00000178911608697267977970000001779028373497982103_" class="st0" d="M297.95,351.2
						c-0.12-0.11-0.24-0.23-0.36-0.36c9.92,4.93,19.85,9.86,29.77,14.79c0.11,0.13,0.23,0.25,0.36,0.36
						c-1.04-0.52-2.43-1.21-3.48-1.73c-1.11-0.55-2.58-1.28-3.69-1.83c-1.15-0.57-2.68-1.33-3.83-1.9c-1.17-0.58-2.73-1.35-3.9-1.93
						c-1.17-0.58-2.73-1.35-3.9-1.93c-0.58-0.29-1.35-0.67-1.93-0.96c-1.13-0.56-2.64-1.31-3.77-1.87c-0.55-0.27-1.28-0.63-1.82-0.9
						C300.39,352.41,298.91,351.87,297.95,351.2z"/>
				</defs>
				<clipPath id="SVGID_00000075858675516098927370000010954493654104603810_">
					<use xlink:href="#SVGID_00000178911608697267977970000001779028373497982103_"  style="overflow:visible;"/>
				</clipPath>
				<g style="clip-path:url(#SVGID_00000075858675516098927370000010954493654104603810_);enable-background:new    ;">
					<path class="st18" d="M327.77,366.03L298,351.25c-0.14-0.13-0.28-0.27-0.41-0.42l29.77,14.79
						C327.49,365.76,327.62,365.9,327.77,366.03"/>
				</g>
			</g>
			<g class="st0">
				<defs>
					<path id="SVGID_00000011013353643956606140000016426515013452984722_" class="st0" d="M297.6,350.84
						C297.6,350.84,297.6,350.84,297.6,350.84c9.92,4.93,19.84,9.86,29.77,14.79c0,0,0,0,0,0c-1.04-0.52-2.43-1.21-3.48-1.73
						c-1.11-0.55-2.58-1.28-3.69-1.83c-1.15-0.57-2.68-1.33-3.83-1.9c-1.17-0.58-2.73-1.35-3.9-1.93c-1.17-0.58-2.73-1.35-3.9-1.93
						c-0.58-0.29-1.35-0.67-1.93-0.96c-1.13-0.56-2.64-1.31-3.77-1.87c-1.08-0.54-2.51-1.25-3.59-1.78
						C298.79,351.44,298.05,351.19,297.6,350.84z"/>
				</defs>
				<clipPath id="SVGID_00000036222060511100147550000002833282740034559128_">
					<use xlink:href="#SVGID_00000011013353643956606140000016426515013452984722_"  style="overflow:visible;"/>
				</clipPath>
				<g style="clip-path:url(#SVGID_00000036222060511100147550000002833282740034559128_);enable-background:new    ;">
					<path class="st18" d="M327.77,366.03L298,351.25c-0.14-0.13-0.28-0.27-0.41-0.42l29.77,14.79
						C327.49,365.76,327.62,365.9,327.77,366.03"/>
				</g>
			</g>
			<g class="st0">
				<defs>
					<path id="SVGID_00000031178894420571070020000012189165100084257712_" class="st0" d="M297.6,350.84c0,0-0.01-0.01-0.01-0.01
						l29.77,14.79c0,0,0.01,0.01,0.01,0.01c-1.04-0.52-2.43-1.21-3.48-1.73c-1.11-0.55-2.58-1.28-3.69-1.83
						c-1.15-0.57-2.68-1.33-3.83-1.9c-1.17-0.58-2.73-1.35-3.9-1.93c-1.17-0.58-2.73-1.35-3.9-1.93c-1.15-0.57-2.68-1.33-3.83-1.9
						c-1.11-0.55-2.58-1.28-3.69-1.83C300.03,352.05,298.52,351.55,297.6,350.84z"/>
				</defs>
				<clipPath id="SVGID_00000145767853654364906860000005963343741462866096_">
					<use xlink:href="#SVGID_00000031178894420571070020000012189165100084257712_"  style="overflow:visible;"/>
				</clipPath>
				<g style="clip-path:url(#SVGID_00000145767853654364906860000005963343741462866096_);enable-background:new    ;">
					<path class="st18" d="M327.77,366.03L298,351.25c-0.14-0.13-0.28-0.27-0.41-0.42l29.77,14.79
						C327.49,365.76,327.62,365.9,327.77,366.03"/>
				</g>
			</g>
			<g class="st0">
				<defs>
					<path id="SVGID_00000169535205618043946990000015480283270315895954_" class="st0" d="M327.35,365.61l-29.77-14.79
						c-0.12-0.13-0.23-0.27-0.34-0.41l29.77,14.79C327.12,365.34,327.23,365.48,327.35,365.61z"/>
				</defs>
				<clipPath id="SVGID_00000127725662353930705980000011002712409108888489_">
					<use xlink:href="#SVGID_00000169535205618043946990000015480283270315895954_"  style="overflow:visible;"/>
				</clipPath>
				<g style="clip-path:url(#SVGID_00000127725662353930705980000011002712409108888489_);enable-background:new    ;">
					<path class="st18" d="M327.35,365.61l-29.77-14.79c-0.12-0.13-0.23-0.27-0.34-0.41l29.77,14.79
						C327.12,365.34,327.23,365.48,327.35,365.61"/>
				</g>
			</g>
			<g>
				<polygon class="st6" points="331.99,347.32 302.22,332.53 448.42,60.67 478.19,75.46 				"/>
			</g>
			<g>
				<polygon class="st6" points="326.73,357.09 296.97,342.31 302.22,332.53 331.99,347.32 				"/>
			</g>
			<g>
				<path class="st31" d="M483.79,71.35c1.24-0.17,2.51,0.03,3.64,0.65c3.15,1.74,4.11,6.11,2.15,9.75L338.23,363.23
					c-0.32,0.6-0.59,1-0.88,1.38c-0.69,0.84-1.29,1.37-1.93,1.79c-0.79,0.48-1.32,0.71-1.86,0.88c-0.54,0.15-0.78,0.19-1.03,0.23
					c-1.02,0.14-2.05,0.03-3.01-0.35c-1.22-0.62-1.74-1.04-2.17-1.53c-1.88-2.12-2.21-5.56-0.62-8.52l5.26-9.78L478.19,75.46
					C479.44,73.12,481.59,71.65,483.79,71.35z"/>
			</g>
			<g>
				<polygon class="st1" points="327.01,365.2 297.24,350.41 179.31,190.28 209.07,205.06 				"/>
			</g>
			<g class="st0">
				<defs>
					<path id="SVGID_00000098906471623947541010000008286030774849068950_" class="st0" d="M188.07,178.6l29.77,14.79
						c-1.05-0.52-2.24-0.7-3.44-0.54l-29.77-14.79C185.83,177.9,187.02,178.08,188.07,178.6z"/>
				</defs>
				<clipPath id="SVGID_00000035508773218659680430000015386531130930316441_">
					<use xlink:href="#SVGID_00000098906471623947541010000008286030774849068950_"  style="overflow:visible;"/>
				</clipPath>
				<g style="clip-path:url(#SVGID_00000035508773218659680430000015386531130930316441_);enable-background:new    ;">
					<path class="st3" d="M214.4,192.85l-29.77-14.79c0.42-0.06,0.84-0.07,1.25-0.05l29.77,14.79
						C215.24,192.78,214.82,192.79,214.4,192.85"/>
					<path class="st4" d="M215.65,192.8l-29.77-14.79c0.6,0.04,1.19,0.17,1.75,0.39l29.77,14.79
						C216.85,192.97,216.26,192.84,215.65,192.8"/>
					<path class="st5" d="M217.4,193.19l-29.77-14.79c0.15,0.06,0.29,0.12,0.44,0.19l29.77,14.79
						C217.7,193.32,217.55,193.25,217.4,193.19"/>
				</g>
			</g>
			<g>
				<path class="st31" d="M214.4,192.85c2.1-0.29,4.19,0.49,5.52,2.3l112.07,152.16l-5.26,9.78c-1.59,2.96-1.26,6.4,0.62,8.52
					c-0.12-0.13-0.23-0.27-0.34-0.41L209.07,205.06c-2.19-2.98-1.53-7.6,1.46-10.34C211.7,193.66,213.06,193.04,214.4,192.85z"/>
			</g>
			<g class="st0">
				<defs>
					<path id="SVGID_00000098216403943546390260000013531200089696986542_" class="st0" d="M209.07,205.06l-29.77-14.79
						c-2.19-2.98-1.53-7.6,1.46-10.34c1.17-1.07,2.52-1.69,3.87-1.87l29.77,14.79c-1.34,0.19-2.7,0.81-3.87,1.87
						C207.54,197.46,206.89,202.08,209.07,205.06z"/>
				</defs>
				<clipPath id="SVGID_00000072987107448927717340000015242995470061717679_">
					<use xlink:href="#SVGID_00000098216403943546390260000013531200089696986542_"  style="overflow:visible;"/>
				</clipPath>
				<g style="clip-path:url(#SVGID_00000072987107448927717340000015242995470061717679_);enable-background:new    ;">
					<path class="st18" d="M209.07,205.06l-29.77-14.79c-1.47-2-1.66-4.75-0.71-7.17l29.77,14.79
						C207.42,200.31,207.6,203.06,209.07,205.06"/>
					<path class="st8" d="M208.36,197.89L178.6,183.1c0.16-0.4,0.35-0.8,0.57-1.18l29.77,14.79
						C208.71,197.09,208.52,197.49,208.36,197.89"/>
					<path class="st9" d="M208.93,196.71l-29.77-14.79c0.18-0.32,0.39-0.62,0.61-0.91l29.77,14.79
						C209.32,196.09,209.12,196.4,208.93,196.71"/>
					<path class="st6" d="M209.54,195.8l-29.77-14.79c0.21-0.27,0.44-0.54,0.69-0.79l29.77,14.79
						C209.98,195.26,209.76,195.53,209.54,195.8"/>
					<path class="st15" d="M210.23,195.01l-29.77-14.79c0.1-0.1,0.2-0.2,0.3-0.29c0.17-0.15,0.33-0.29,0.51-0.43l29.77,14.79
						c-0.17,0.13-0.34,0.27-0.51,0.43C210.43,194.82,210.33,194.91,210.23,195.01"/>
					<path class="st5" d="M211.04,194.3l-29.77-14.79c0.33-0.25,0.67-0.48,1.02-0.67l29.77,14.79
						C211.71,193.82,211.37,194.04,211.04,194.3"/>
					<path class="st4" d="M212.06,193.63l-29.77-14.79c0.58-0.32,1.18-0.54,1.78-0.68l29.77,14.79
						C213.24,193.09,212.64,193.32,212.06,193.63"/>
					<path class="st3" d="M213.84,192.95l-29.77-14.79c0.19-0.04,0.37-0.08,0.56-0.1l29.77,14.79
						C214.21,192.88,214.03,192.91,213.84,192.95"/>
				</g>
			</g>
		</g>
	</g>
</g>
</svg>
