<?xml version="1.0" encoding="utf-8"?>
<!-- Generator: Adobe Illustrator 27.5.0, SVG Export Plug-In . SVG Version: 6.00 Build 0)  -->
<svg version="1.1" id="Шар_1" xmlns="http://www.w3.org/2000/svg" xmlns:xlink="http://www.w3.org/1999/xlink" x="0px" y="0px"
	 viewBox="0 0 640 480" style="enable-background:new 0 0 640 480;" xml:space="preserve">
<style type="text/css">
	.st0{enable-background:new    ;}
	.st1{fill:#7E581E;}
	.st2{clip-path:url(#SVGID_00000106143778290252217010000012677203512723211694_);enable-background:new    ;}
	.st3{fill:#A67427;}
	.st4{fill:#A17126;}
	.st5{fill:#9C6D25;}
	.st6{fill:#936722;}
	.st7{clip-path:url(#SVGID_00000052074263068448461220000018023765900056142745_);enable-background:new    ;}
	.st8{fill:#885F20;}
	.st9{fill:#8D6321;}
	.st10{clip-path:url(#SVGID_00000061473333926168575960000001990965185667641481_);enable-background:new    ;}
	.st11{clip-path:url(#SVGID_00000049917107205410783810000013694321596149876665_);enable-background:new    ;}
	.st12{clip-path:url(#SVGID_00000114062663321554080060000017627215684553526167_);enable-background:new    ;}
	.st13{fill:#926622;}
	.st14{clip-path:url(#SVGID_00000010293267744089272360000009586899622117020803_);enable-background:new    ;}
	.st15{clip-path:url(#SVGID_00000117653623593760489560000016533984362069503628_);enable-background:new    ;}
	.st16{fill:#976A23;}
	.st17{clip-path:url(#SVGID_00000131325910731461328900000000998676882595814541_);enable-background:new    ;}
	.st18{clip-path:url(#SVGID_00000049204516611399351960000002380033761216322995_);enable-background:new    ;}
	.st19{fill:#835C1F;}
	.st20{clip-path:url(#SVGID_00000182519554095876300690000008994871203956221369_);enable-background:new    ;}
	.st21{clip-path:url(#SVGID_00000007388994276968475060000010101537436086758025_);enable-background:new    ;}
	.st22{clip-path:url(#SVGID_00000134956082598051851540000013424421806646773397_);enable-background:new    ;}
	.st23{clip-path:url(#SVGID_00000045590040808948865180000009941539567566893953_);enable-background:new    ;}
	.st24{clip-path:url(#SVGID_00000016038356634151971430000000660873132436418456_);enable-background:new    ;}
	.st25{clip-path:url(#SVGID_00000052803338831263938120000015261182208358463915_);enable-background:new    ;}
	.st26{clip-path:url(#SVGID_00000083062645879462782480000018195903585211968659_);enable-background:new    ;}
	.st27{clip-path:url(#SVGID_00000093863289962160581220000017884845283186993075_);enable-background:new    ;}
	.st28{clip-path:url(#SVGID_00000026864976887400833320000006068704993859354281_);enable-background:new    ;}
	.st29{clip-path:url(#SVGID_00000173861027504463135490000010989063881109950136_);enable-background:new    ;}
	.st30{clip-path:url(#SVGID_00000155126875585008371190000005000612018247212945_);enable-background:new    ;}
	.st31{clip-path:url(#SVGID_00000178902099045946722160000018426924592351172259_);enable-background:new    ;}
	.st32{fill:#DD9B34;}
	.st33{clip-path:url(#SVGID_00000022544166700904955150000016971652416476116114_);enable-background:new    ;}
	.st34{clip-path:url(#SVGID_00000094587589538050519480000007289975371905798562_);enable-background:new    ;}
</style>
<g>
	<g>
		<g class="st0">
			<g>
				<path class="st1" d="M307.99,349.25c-0.13,0.19-0.26,0.38-0.41,0.57C307.73,349.63,307.86,349.44,307.99,349.25z"/>
			</g>
			<g>
				<path class="st1" d="M299.12,352.06c-0.06-0.03-0.11-0.07-0.17-0.1C299,351.99,299.06,352.02,299.12,352.06z"/>
			</g>
			<g>
				<path class="st1" d="M298.95,351.95c-0.11-0.06-0.21-0.13-0.32-0.2C298.73,351.82,298.84,351.89,298.95,351.95z"/>
			</g>
			<g>
				<path class="st1" d="M298.63,351.75c-0.06-0.04-0.12-0.09-0.19-0.14C298.5,351.66,298.57,351.71,298.63,351.75z"/>
			</g>
			<g>
				<path class="st1" d="M298.44,351.61c-0.1-0.07-0.2-0.15-0.29-0.24C298.24,351.46,298.34,351.54,298.44,351.61z"/>
			</g>
			<g>
				<path class="st1" d="M298.15,351.38c-0.05-0.04-0.1-0.09-0.15-0.13C298.05,351.29,298.1,351.33,298.15,351.38z"/>
			</g>
			<g>
				<path class="st1" d="M298,351.25c-0.14-0.13-0.28-0.27-0.41-0.42C297.72,350.98,297.85,351.11,298,351.25z"/>
			</g>
			<g class="st0">
				<defs>
					<path id="SVGID_1_" class="st0" d="M457.45,57.1l29.77,14.79c-1.08-0.53-2.26-0.7-3.42-0.54l-29.77-14.79
						C455.19,56.4,456.37,56.56,457.45,57.1z"/>
				</defs>
				<clipPath id="SVGID_00000061432313771633390120000014024374408509113016_">
					<use xlink:href="#SVGID_1_"  style="overflow:visible;"/>
				</clipPath>
				<g style="clip-path:url(#SVGID_00000061432313771633390120000014024374408509113016_);enable-background:new    ;">
					<path class="st3" d="M483.79,71.35l-29.77-14.79c0.41-0.06,0.83-0.07,1.24-0.05l29.77,14.79
						C484.62,71.27,484.21,71.29,483.79,71.35"/>
					<path class="st4" d="M485.03,71.3l-29.77-14.79c0.59,0.04,1.18,0.17,1.74,0.39l29.77,14.79
						C486.21,71.46,485.62,71.34,485.03,71.3"/>
					<path class="st5" d="M486.77,71.69L457.01,56.9c0.15,0.06,0.3,0.12,0.44,0.2l29.77,14.79
						C487.07,71.81,486.92,71.75,486.77,71.69"/>
				</g>
			</g>
			<g>
				<polygon class="st6" points="338.14,363.39 308.37,348.6 308.46,348.44 338.23,363.23 				"/>
			</g>
			<g class="st0">
				<defs>
					<polygon id="SVGID_00000155120900818576366410000000045693578191619203_" class="st0" points="338.14,363.4 308.37,348.61 
						308.37,348.6 338.14,363.39 					"/>
				</defs>
				<clipPath id="SVGID_00000064333092003643849640000014602576421647072918_">
					<use xlink:href="#SVGID_00000155120900818576366410000000045693578191619203_"  style="overflow:visible;"/>
				</clipPath>
				<g style="clip-path:url(#SVGID_00000064333092003643849640000014602576421647072918_);enable-background:new    ;">
					<polyline class="st8" points="338.14,363.4 308.37,348.61 308.37,348.61 338.14,363.4 338.14,363.4 					"/>
					<polyline class="st9" points="338.14,363.4 308.37,348.61 308.37,348.6 338.14,363.39 338.14,363.4 					"/>
					<polyline class="st8" points="338.14,363.39 308.37,348.6 308.37,348.6 338.14,363.39 338.14,363.39 					"/>
				</g>
			</g>
			<g>
				<path class="st1" d="M338.23,363.23c-0.03,0.06-0.06,0.11-0.09,0.17c0,0,0-0.01,0.01-0.01L338.23,363.23z"/>
			</g>
			<g class="st0">
				<defs>
					<path id="SVGID_00000031207903671587019260000010750563049066453397_" class="st0" d="M337.77,364.01l-29.77-14.79
						c0.13-0.2,0.25-0.4,0.36-0.61l29.77,14.79C338.02,363.61,337.9,363.81,337.77,364.01z"/>
				</defs>
				<clipPath id="SVGID_00000014605211588097951570000018047887253425757118_">
					<use xlink:href="#SVGID_00000031207903671587019260000010750563049066453397_"  style="overflow:visible;"/>
				</clipPath>
				<g style="clip-path:url(#SVGID_00000014605211588097951570000018047887253425757118_);enable-background:new    ;">
					<path class="st9" d="M337.77,364.01l-29.77-14.79c0.08-0.12,0.15-0.24,0.23-0.37L338,363.64
						C337.93,363.77,337.85,363.89,337.77,364.01"/>
					<path class="st8" d="M338,363.64l-29.77-14.79c0.05-0.08,0.09-0.16,0.14-0.24l29.77,14.79
						C338.09,363.48,338.05,363.56,338,363.64"/>
				</g>
			</g>
			<g>
				<path class="st1" d="M337.77,364.01c0.13-0.2,0.25-0.4,0.36-0.61C338.02,363.61,337.9,363.81,337.77,364.01z"/>
			</g>
			<g>
				<path class="st1" d="M337.76,364.03c0-0.01,0.01-0.01,0.02-0.02C337.77,364.02,337.76,364.03,337.76,364.03z"/>
			</g>
			<g class="st0">
				<defs>
					<path id="SVGID_00000046316751856180062280000006154825741637811080_" class="st0" d="M337.76,364.03l-29.77-14.79
						c0-0.01,0.01-0.01,0.02-0.02l29.77,14.79C337.77,364.02,337.76,364.03,337.76,364.03z"/>
				</defs>
				<clipPath id="SVGID_00000044887759726659849370000010549623259689933974_">
					<use xlink:href="#SVGID_00000046316751856180062280000006154825741637811080_"  style="overflow:visible;"/>
				</clipPath>
				<g style="clip-path:url(#SVGID_00000044887759726659849370000010549623259689933974_);enable-background:new    ;">
					<path class="st9" d="M337.76,364.03l-29.77-14.79c0-0.01,0.01-0.01,0.02-0.02l29.77,14.79
						C337.77,364.02,337.76,364.03,337.76,364.03"/>
				</g>
			</g>
			<g class="st0">
				<defs>
					<path id="SVGID_00000127039749436116165990000018348029821817693858_" class="st0" d="M307.59,349.82
						c0.14-0.18,0.28-0.37,0.41-0.57l29.77,14.79c-0.13,0.2-0.26,0.39-0.41,0.57C327.43,359.67,317.51,354.74,307.59,349.82z"/>
				</defs>
				<clipPath id="SVGID_00000165924025073272100770000008619530879465687994_">
					<use xlink:href="#SVGID_00000127039749436116165990000018348029821817693858_"  style="overflow:visible;"/>
				</clipPath>
				<g style="clip-path:url(#SVGID_00000165924025073272100770000008619530879465687994_);enable-background:new    ;">
					<path class="st13" d="M337.35,364.6l-29.77-14.79c0.01-0.01,0.02-0.02,0.03-0.04l29.77,14.79
						C337.37,364.58,337.36,364.59,337.35,364.6"/>
					<path class="st9" d="M337.38,364.57l-29.77-14.79c0.13-0.17,0.26-0.35,0.38-0.53l29.77,14.79
						C337.64,364.22,337.51,364.39,337.38,364.57"/>
				</g>
			</g>
			<g>
				<path class="st1" d="M335.13,366.57c-0.51,0.3-1.04,0.54-1.57,0.7C334.1,367.11,334.63,366.87,335.13,366.57z"/>
			</g>
			<g class="st0">
				<defs>
					<path id="SVGID_00000176032207292102842650000002792425948293050257_" class="st0" d="M303.8,352.49
						c0.54-0.17,1.07-0.4,1.57-0.7l29.77,14.79c-0.5,0.3-1.03,0.53-1.57,0.7c-9.89-4.91-19.78-9.83-29.67-14.74
						c9.89,4.91,19.78,9.83,29.67,14.74c0,0,0,0,0,0C324.63,362.84,312.73,356.92,303.8,352.49z"/>
				</defs>
				<clipPath id="SVGID_00000008114119478513532830000005281186343708242589_">
					<use xlink:href="#SVGID_00000176032207292102842650000002792425948293050257_"  style="overflow:visible;"/>
				</clipPath>
				<g style="clip-path:url(#SVGID_00000008114119478513532830000005281186343708242589_);enable-background:new    ;">
					<path class="st4" d="M333.56,367.27l-29.77-14.79c0.45-0.14,0.9-0.33,1.33-0.56l29.77,14.79
						C334.46,366.95,334.02,367.13,333.56,367.27"/>
					<path class="st5" d="M334.89,366.71l-29.77-14.79c0.08-0.04,0.16-0.09,0.24-0.14l29.77,14.79
						C335.05,366.62,334.97,366.67,334.89,366.71"/>
				</g>
			</g>
			<g class="st0">
				<defs>
					<path id="SVGID_00000023993980575703175580000003779732202337046970_" class="st0" d="M478.19,75.46l-29.77-14.79
						c1.26-2.33,3.4-3.81,5.61-4.11l29.77,14.79C481.59,71.65,479.44,73.12,478.19,75.46z"/>
				</defs>
				<clipPath id="SVGID_00000134251043757488853940000006683946732344460215_">
					<use xlink:href="#SVGID_00000023993980575703175580000003779732202337046970_"  style="overflow:visible;"/>
				</clipPath>
				<g style="clip-path:url(#SVGID_00000134251043757488853940000006683946732344460215_);enable-background:new    ;">
					<path class="st8" d="M478.19,75.46l-29.77-14.79c0.05-0.08,0.09-0.17,0.14-0.25l29.77,14.79
						C478.28,75.29,478.23,75.37,478.19,75.46"/>
					<path class="st9" d="M478.33,75.21l-29.77-14.79c0.19-0.33,0.4-0.63,0.62-0.92l29.77,14.79
						C478.72,74.57,478.52,74.88,478.33,75.21"/>
					<path class="st13" d="M478.94,74.28L449.18,59.5c0.21-0.28,0.44-0.54,0.68-0.78l29.77,14.79
						C479.39,73.74,479.16,74,478.94,74.28"/>
					<path class="st16" d="M479.63,73.5l-29.77-14.79c0.25-0.26,0.52-0.49,0.8-0.71l29.77,14.79
						C480.15,73.01,479.88,73.25,479.63,73.5"/>
					<path class="st5" d="M480.42,72.8l-29.77-14.79c0.33-0.25,0.67-0.47,1.02-0.67l29.77,14.79
						C481.09,72.32,480.75,72.54,480.42,72.8"/>
					<path class="st4" d="M481.44,72.13l-29.77-14.79c0.58-0.31,1.19-0.55,1.8-0.69l29.77,14.79
						C482.63,71.58,482.02,71.82,481.44,72.13"/>
					<path class="st3" d="M483.25,71.44l-29.77-14.79c0.18-0.04,0.36-0.07,0.55-0.1l29.77,14.79
						C483.61,71.37,483.43,71.4,483.25,71.44"/>
				</g>
			</g>
			<g class="st0">
				<defs>
					<path id="SVGID_00000119088237620421066190000007663306028295906191_" class="st0" d="M329.11,366.96l-29.77-14.79
						c0.1,0.05,0.21,0.1,0.31,0.14l29.77,14.79C329.32,367.06,329.21,367.01,329.11,366.96z"/>
				</defs>
				<clipPath id="SVGID_00000142175871893927956530000001403249168279918229_">
					<use xlink:href="#SVGID_00000119088237620421066190000007663306028295906191_"  style="overflow:visible;"/>
				</clipPath>
				<g style="clip-path:url(#SVGID_00000142175871893927956530000001403249168279918229_);enable-background:new    ;">
					<path class="st5" d="M329.11,366.96l-29.77-14.79c0.1,0.05,0.21,0.1,0.31,0.14l29.77,14.79
						C329.32,367.06,329.21,367.01,329.11,366.96"/>
				</g>
			</g>
			<g class="st0">
				<defs>
					<path id="SVGID_00000060742568558543741180000013338162177216969904_" class="st0" d="M329.12,366.97l-29.77-14.79
						c-0.08-0.04-0.16-0.08-0.23-0.12l29.77,14.79C328.96,366.89,329.04,366.93,329.12,366.97z"/>
				</defs>
				<clipPath id="SVGID_00000176011686768461769200000017300936484840926851_">
					<use xlink:href="#SVGID_00000060742568558543741180000013338162177216969904_"  style="overflow:visible;"/>
				</clipPath>
				<g style="clip-path:url(#SVGID_00000176011686768461769200000017300936484840926851_);enable-background:new    ;">
					<path class="st19" d="M329.12,366.97l-29.77-14.79c-0.08-0.04-0.16-0.08-0.23-0.12l29.77,14.79
						C328.96,366.89,329.04,366.93,329.12,366.97"/>
				</g>
			</g>
			<g>
				<path class="st1" d="M328.89,366.85c0.17,0.1,0.35,0.18,0.53,0.26C329.24,367.03,329.06,366.94,328.89,366.85
					C328.89,366.84,328.89,366.85,328.89,366.85z"/>
			</g>
			<g class="st0">
				<defs>
					<path id="SVGID_00000047036732234674496990000000589163512709972875_" class="st0" d="M329.52,367.15l-29.77-14.79
						c-1.22-0.62-1.74-1.04-2.17-1.53c-1.88-2.12-2.21-5.56-0.62-8.52l29.77,14.79c-1.59,2.96-1.26,6.4,0.62,8.52
						C327.79,366.1,328.3,366.52,329.52,367.15z"/>
				</defs>
				<clipPath id="SVGID_00000111172413817008384750000016952998283078494134_">
					<use xlink:href="#SVGID_00000047036732234674496990000000589163512709972875_"  style="overflow:visible;"/>
				</clipPath>
				<g style="clip-path:url(#SVGID_00000111172413817008384750000016952998283078494134_);enable-background:new    ;">
					<path class="st19" d="M329.52,367.15l-29.77-14.79c-1.22-0.62-1.74-1.04-2.17-1.53c-1.68-1.9-2.13-4.86-1.06-7.58l29.77,14.79
						c-1.07,2.72-0.63,5.68,1.06,7.58C327.79,366.1,328.3,366.52,329.52,367.15"/>
					<path class="st8" d="M326.3,358.03l-29.77-14.79c0.12-0.32,0.27-0.63,0.43-0.94l29.77,14.79
						C326.57,357.4,326.42,357.72,326.3,358.03"/>
				</g>
			</g>
			<g class="st0">
				<defs>
					<path id="SVGID_00000062879440967335359420000004548799403003169206_" class="st0" d="M328.89,366.84l-29.77-14.79
						c-0.06-0.03-0.11-0.07-0.17-0.1l29.77,14.79C328.77,366.77,328.83,366.81,328.89,366.84z"/>
				</defs>
				<clipPath id="SVGID_00000164478362192888137120000004526689881482750649_">
					<use xlink:href="#SVGID_00000062879440967335359420000004548799403003169206_"  style="overflow:visible;"/>
				</clipPath>
				<g style="clip-path:url(#SVGID_00000164478362192888137120000004526689881482750649_);enable-background:new    ;">
					<path class="st19" d="M328.89,366.84l-29.77-14.79c-0.06-0.03-0.11-0.07-0.17-0.1l29.77,14.79
						C328.77,366.77,328.83,366.81,328.89,366.84"/>
				</g>
			</g>
			<g class="st0">
				<defs>
					<path id="SVGID_00000129201597401520434060000010172824146293209784_" class="st0" d="M328.71,366.74l-29.77-14.79
						c-0.11-0.06-0.21-0.13-0.32-0.2l29.77,14.79C328.5,366.61,328.61,366.67,328.71,366.74z"/>
				</defs>
				<clipPath id="SVGID_00000168093194795387425430000006091753385552880524_">
					<use xlink:href="#SVGID_00000129201597401520434060000010172824146293209784_"  style="overflow:visible;"/>
				</clipPath>
				<g style="clip-path:url(#SVGID_00000168093194795387425430000006091753385552880524_);enable-background:new    ;">
					<path class="st19" d="M328.71,366.74l-29.77-14.79c-0.11-0.06-0.21-0.13-0.32-0.2l29.77,14.79
						C328.5,366.61,328.61,366.67,328.71,366.74"/>
				</g>
			</g>
			<g class="st0">
				<defs>
					<path id="SVGID_00000137838588386828281190000007302377113864408708_" class="st0" d="M328.4,366.54l-29.77-14.79
						c-0.06-0.04-0.12-0.09-0.19-0.14l29.77,14.79C328.27,366.45,328.33,366.49,328.4,366.54z"/>
				</defs>
				<clipPath id="SVGID_00000147924821853651323980000011101020452975658386_">
					<use xlink:href="#SVGID_00000137838588386828281190000007302377113864408708_"  style="overflow:visible;"/>
				</clipPath>
				<g style="clip-path:url(#SVGID_00000147924821853651323980000011101020452975658386_);enable-background:new    ;">
					<path class="st19" d="M328.4,366.54l-29.77-14.79c-0.06-0.04-0.12-0.09-0.19-0.14l29.77,14.79
						C328.27,366.45,328.33,366.49,328.4,366.54"/>
				</g>
			</g>
			<g class="st0">
				<defs>
					<path id="SVGID_00000128474438012960814890000007867427084856933038_" class="st0" d="M328.21,366.4l-29.77-14.79
						c-0.1-0.07-0.2-0.15-0.29-0.24l29.77,14.79C328.01,366.25,328.11,366.32,328.21,366.4z"/>
				</defs>
				<clipPath id="SVGID_00000064338000648028818750000009742904054802133160_">
					<use xlink:href="#SVGID_00000128474438012960814890000007867427084856933038_"  style="overflow:visible;"/>
				</clipPath>
				<g style="clip-path:url(#SVGID_00000064338000648028818750000009742904054802133160_);enable-background:new    ;">
					<path class="st19" d="M328.21,366.4l-29.77-14.79c-0.1-0.07-0.2-0.15-0.29-0.24l29.77,14.79
						C328.01,366.25,328.11,366.32,328.21,366.4"/>
				</g>
			</g>
			<g class="st0">
				<defs>
					<path id="SVGID_00000116931770762076373860000012832527742585887930_" class="st0" d="M327.92,366.16l-29.77-14.79
						c-0.05-0.04-0.1-0.09-0.15-0.13l29.77,14.79C327.82,366.08,327.87,366.12,327.92,366.16z"/>
				</defs>
				<clipPath id="SVGID_00000152981810548665121260000012206035404437691529_">
					<use xlink:href="#SVGID_00000116931770762076373860000012832527742585887930_"  style="overflow:visible;"/>
				</clipPath>
				<g style="clip-path:url(#SVGID_00000152981810548665121260000012206035404437691529_);enable-background:new    ;">
					<path class="st19" d="M327.92,366.16l-29.77-14.79c-0.05-0.04-0.1-0.09-0.15-0.13l29.77,14.79
						C327.82,366.08,327.87,366.12,327.92,366.16"/>
				</g>
			</g>
			<g class="st0">
				<defs>
					<path id="SVGID_00000161601155680295985680000000832092543524621749_" class="st0" d="M297.96,351.21
						c9.92,4.93,19.85,9.86,29.77,14.79c0.01,0.01,0.03,0.03,0.04,0.04L298,351.25C297.98,351.23,297.97,351.22,297.96,351.21z"/>
				</defs>
				<clipPath id="SVGID_00000011713515662641185360000000682276424061407126_">
					<use xlink:href="#SVGID_00000161601155680295985680000000832092543524621749_"  style="overflow:visible;"/>
				</clipPath>
				<g style="clip-path:url(#SVGID_00000011713515662641185360000000682276424061407126_);enable-background:new    ;">
					<path class="st19" d="M327.77,366.03L298,351.25c-0.14-0.13-0.28-0.27-0.41-0.42l29.77,14.79
						C327.49,365.76,327.62,365.9,327.77,366.03"/>
				</g>
			</g>
			<g class="st0">
				<defs>
					<path id="SVGID_00000118371062231402702660000003517848629578158465_" class="st0" d="M297.96,351.21
						C297.96,351.21,297.96,351.2,297.96,351.21c2.39,1.18,4.77,2.37,7.16,3.56c2.57,1.28,5.15,2.56,7.72,3.84
						c1.17,0.58,2.73,1.35,3.9,1.93c1.15,0.57,2.68,1.33,3.83,1.9c2.39,1.19,4.77,2.37,7.16,3.56c0,0,0,0,0,0
						c-0.94-0.47-2.19-1.09-3.13-1.56c-1-0.5-2.33-1.16-3.32-1.65c-1.03-0.51-2.41-1.2-3.45-1.71c-1.05-0.52-2.46-1.22-3.51-1.74
						s-2.46-1.22-3.51-1.74c-1.03-0.51-2.41-1.2-3.45-1.71c-1-0.5-2.33-1.16-3.32-1.65c-0.94-0.47-2.19-1.09-3.13-1.56
						c-0.1-0.05-0.24-0.12-0.34-0.17c-0.11-0.05-0.25-0.13-0.36-0.18c-0.11-0.06-0.26-0.13-0.38-0.19
						c-0.12-0.06-0.27-0.13-0.38-0.19c-0.12-0.06-0.27-0.13-0.38-0.19c-0.11-0.06-0.26-0.13-0.38-0.19
						c-0.11-0.05-0.25-0.13-0.36-0.18C298.2,351.33,298.06,351.26,297.96,351.21z"/>
				</defs>
				<clipPath id="SVGID_00000095301943225452197540000004625043724158583707_">
					<use xlink:href="#SVGID_00000118371062231402702660000003517848629578158465_"  style="overflow:visible;"/>
				</clipPath>
				<g style="clip-path:url(#SVGID_00000095301943225452197540000004625043724158583707_);enable-background:new    ;">
					<path class="st19" d="M327.77,366.03L298,351.25c-0.14-0.13-0.28-0.27-0.41-0.42l29.77,14.79
						C327.49,365.76,327.62,365.9,327.77,366.03"/>
				</g>
			</g>
			<g class="st0">
				<defs>
					<path id="SVGID_00000004519492615111172740000004901202191179414147_" class="st0" d="M297.95,351.2
						c-0.12-0.11-0.24-0.23-0.36-0.36c9.92,4.93,19.85,9.86,29.77,14.79c0.11,0.13,0.23,0.25,0.36,0.36
						c-1.04-0.52-2.43-1.21-3.48-1.73c-1.11-0.55-2.58-1.28-3.69-1.83c-1.15-0.57-2.68-1.33-3.83-1.9c-1.17-0.58-2.73-1.35-3.9-1.93
						c-1.17-0.58-2.73-1.35-3.9-1.93c-0.58-0.29-1.35-0.67-1.93-0.96c-1.13-0.56-2.64-1.31-3.77-1.87c-0.55-0.27-1.28-0.63-1.82-0.9
						C300.39,352.41,298.91,351.87,297.95,351.2z"/>
				</defs>
				<clipPath id="SVGID_00000165954814974082768580000003955926201781532308_">
					<use xlink:href="#SVGID_00000004519492615111172740000004901202191179414147_"  style="overflow:visible;"/>
				</clipPath>
				<g style="clip-path:url(#SVGID_00000165954814974082768580000003955926201781532308_);enable-background:new    ;">
					<path class="st19" d="M327.77,366.03L298,351.25c-0.14-0.13-0.28-0.27-0.41-0.42l29.77,14.79
						C327.49,365.76,327.62,365.9,327.77,366.03"/>
				</g>
			</g>
			<g class="st0">
				<defs>
					<path id="SVGID_00000093873609641455653540000002855546822111731349_" class="st0" d="M297.6,350.84
						C297.6,350.84,297.6,350.84,297.6,350.84c9.92,4.93,19.84,9.86,29.77,14.79c0,0,0,0,0,0c-1.04-0.52-2.43-1.21-3.48-1.73
						c-1.11-0.55-2.58-1.28-3.69-1.83c-1.15-0.57-2.68-1.33-3.83-1.9c-1.17-0.58-2.73-1.35-3.9-1.93c-1.17-0.58-2.73-1.35-3.9-1.93
						c-0.58-0.29-1.35-0.67-1.93-0.96c-1.13-0.56-2.64-1.31-3.77-1.87c-1.08-0.54-2.51-1.25-3.59-1.78
						C298.79,351.44,298.05,351.19,297.6,350.84z"/>
				</defs>
				<clipPath id="SVGID_00000020390024776340427140000016665364634942558898_">
					<use xlink:href="#SVGID_00000093873609641455653540000002855546822111731349_"  style="overflow:visible;"/>
				</clipPath>
				<g style="clip-path:url(#SVGID_00000020390024776340427140000016665364634942558898_);enable-background:new    ;">
					<path class="st19" d="M327.77,366.03L298,351.25c-0.14-0.13-0.28-0.27-0.41-0.42l29.77,14.79
						C327.49,365.76,327.62,365.9,327.77,366.03"/>
				</g>
			</g>
			<g class="st0">
				<defs>
					<path id="SVGID_00000181045314689065747280000009370489807632466588_" class="st0" d="M297.6,350.84c0,0-0.01-0.01-0.01-0.01
						l29.77,14.79c0,0,0.01,0.01,0.01,0.01c-1.04-0.52-2.43-1.21-3.48-1.73c-1.11-0.55-2.58-1.28-3.69-1.83
						c-1.15-0.57-2.68-1.33-3.83-1.9c-1.17-0.58-2.73-1.35-3.9-1.93c-1.17-0.58-2.73-1.35-3.9-1.93c-1.15-0.57-2.68-1.33-3.83-1.9
						c-1.11-0.55-2.58-1.28-3.69-1.83C300.03,352.05,298.52,351.55,297.6,350.84z"/>
				</defs>
				<clipPath id="SVGID_00000107558534631439872520000011415891219420951171_">
					<use xlink:href="#SVGID_00000181045314689065747280000009370489807632466588_"  style="overflow:visible;"/>
				</clipPath>
				<g style="clip-path:url(#SVGID_00000107558534631439872520000011415891219420951171_);enable-background:new    ;">
					<path class="st19" d="M327.77,366.03L298,351.25c-0.14-0.13-0.28-0.27-0.41-0.42l29.77,14.79
						C327.49,365.76,327.62,365.9,327.77,366.03"/>
				</g>
			</g>
			<g class="st0">
				<defs>
					<path id="SVGID_00000137827022683849261820000017116115681310190214_" class="st0" d="M327.35,365.61l-29.77-14.79
						c-0.12-0.13-0.23-0.27-0.34-0.41l29.77,14.79C327.12,365.34,327.23,365.48,327.35,365.61z"/>
				</defs>
				<clipPath id="SVGID_00000145036047271544593870000013305669563178997920_">
					<use xlink:href="#SVGID_00000137827022683849261820000017116115681310190214_"  style="overflow:visible;"/>
				</clipPath>
				<g style="clip-path:url(#SVGID_00000145036047271544593870000013305669563178997920_);enable-background:new    ;">
					<path class="st19" d="M327.35,365.61l-29.77-14.79c-0.12-0.13-0.23-0.27-0.34-0.41l29.77,14.79
						C327.12,365.34,327.23,365.48,327.35,365.61"/>
				</g>
			</g>
			<g>
				<polygon class="st6" points="331.99,347.32 302.22,332.53 448.42,60.67 478.19,75.46 				"/>
			</g>
			<g>
				<polygon class="st6" points="326.73,357.09 296.97,342.31 302.22,332.53 331.99,347.32 				"/>
			</g>
			<g>
				<path class="st32" d="M483.79,71.35c1.24-0.17,2.51,0.03,3.64,0.65c3.15,1.74,4.11,6.11,2.15,9.75L338.23,363.23
					c-0.32,0.6-0.59,1-0.88,1.38c-0.69,0.84-1.29,1.37-1.93,1.79c-0.79,0.48-1.32,0.71-1.86,0.88c-0.54,0.15-0.78,0.19-1.03,0.23
					c-1.02,0.14-2.05,0.03-3.01-0.35c-1.22-0.62-1.74-1.04-2.17-1.53c-1.88-2.12-2.21-5.56-0.62-8.52l5.26-9.78L478.19,75.46
					C479.44,73.12,481.59,71.65,483.79,71.35z"/>
			</g>
			<g>
				<polygon class="st1" points="327.01,365.2 297.24,350.41 179.31,190.28 209.07,205.06 				"/>
			</g>
			<g class="st0">
				<defs>
					<path id="SVGID_00000037655831852893326340000018127141888610818197_" class="st0" d="M188.07,178.6l29.77,14.79
						c-1.05-0.52-2.24-0.7-3.44-0.54l-29.77-14.79C185.83,177.9,187.02,178.08,188.07,178.6z"/>
				</defs>
				<clipPath id="SVGID_00000181052090387024003080000007046688070393828524_">
					<use xlink:href="#SVGID_00000037655831852893326340000018127141888610818197_"  style="overflow:visible;"/>
				</clipPath>
				<g style="clip-path:url(#SVGID_00000181052090387024003080000007046688070393828524_);enable-background:new    ;">
					<path class="st3" d="M214.4,192.85l-29.77-14.79c0.42-0.06,0.84-0.07,1.25-0.05l29.77,14.79
						C215.24,192.78,214.82,192.79,214.4,192.85"/>
					<path class="st4" d="M215.65,192.8l-29.77-14.79c0.6,0.04,1.19,0.17,1.75,0.39l29.77,14.79
						C216.85,192.97,216.26,192.84,215.65,192.8"/>
					<path class="st5" d="M217.4,193.19l-29.77-14.79c0.15,0.06,0.29,0.12,0.44,0.19l29.77,14.79
						C217.7,193.32,217.55,193.25,217.4,193.19"/>
				</g>
			</g>
			<g>
				<path class="st32" d="M214.4,192.85c2.1-0.29,4.19,0.49,5.52,2.3l112.07,152.16l-5.26,9.78c-1.59,2.96-1.26,6.4,0.62,8.52
					c-0.12-0.13-0.23-0.27-0.34-0.41L209.07,205.06c-2.19-2.98-1.53-7.6,1.46-10.34C211.7,193.66,213.06,193.04,214.4,192.85z"/>
			</g>
			<g class="st0">
				<defs>
					<path id="SVGID_00000163751590307241467000000000334737493119472802_" class="st0" d="M209.07,205.06l-29.77-14.79
						c-2.19-2.98-1.53-7.6,1.46-10.34c1.17-1.07,2.52-1.69,3.87-1.87l29.77,14.79c-1.34,0.19-2.7,0.81-3.87,1.87
						C207.54,197.46,206.89,202.08,209.07,205.06z"/>
				</defs>
				<clipPath id="SVGID_00000124859181905167372910000013293946391859170456_">
					<use xlink:href="#SVGID_00000163751590307241467000000000334737493119472802_"  style="overflow:visible;"/>
				</clipPath>
				<g style="clip-path:url(#SVGID_00000124859181905167372910000013293946391859170456_);enable-background:new    ;">
					<path class="st19" d="M209.07,205.06l-29.77-14.79c-1.47-2-1.66-4.75-0.71-7.17l29.77,14.79
						C207.42,200.31,207.6,203.06,209.07,205.06"/>
					<path class="st8" d="M208.36,197.89L178.6,183.1c0.16-0.4,0.35-0.8,0.57-1.18l29.77,14.79
						C208.71,197.09,208.52,197.49,208.36,197.89"/>
					<path class="st9" d="M208.93,196.71l-29.77-14.79c0.18-0.32,0.39-0.62,0.61-0.91l29.77,14.79
						C209.32,196.09,209.12,196.4,208.93,196.71"/>
					<path class="st13" d="M209.54,195.8l-29.77-14.79c0.21-0.27,0.44-0.54,0.69-0.79l29.77,14.79
						C209.98,195.26,209.76,195.53,209.54,195.8"/>
					<path class="st16" d="M210.23,195.01l-29.77-14.79c0.1-0.1,0.2-0.2,0.3-0.29c0.17-0.15,0.33-0.29,0.51-0.43l29.77,14.79
						c-0.17,0.13-0.34,0.27-0.51,0.43C210.43,194.82,210.33,194.91,210.23,195.01"/>
					<path class="st5" d="M211.04,194.3l-29.77-14.79c0.33-0.25,0.67-0.48,1.02-0.67l29.77,14.79
						C211.71,193.82,211.37,194.04,211.04,194.3"/>
					<path class="st4" d="M212.06,193.63l-29.77-14.79c0.58-0.32,1.18-0.54,1.78-0.68l29.77,14.79
						C213.24,193.09,212.64,193.32,212.06,193.63"/>
					<path class="st3" d="M213.84,192.95l-29.77-14.79c0.19-0.04,0.37-0.08,0.56-0.1l29.77,14.79
						C214.21,192.88,214.03,192.91,213.84,192.95"/>
				</g>
			</g>
		</g>
	</g>
</g>
</svg>
