<?xml version="1.0" encoding="utf-8"?>
<!-- Generator: Adobe Illustrator 27.5.0, SVG Export Plug-In . SVG Version: 6.00 Build 0)  -->
<svg version="1.1" id="Шар_1" xmlns="http://www.w3.org/2000/svg" xmlns:xlink="http://www.w3.org/1999/xlink" x="0px" y="0px"
	 viewBox="0 0 640 480" style="enable-background:new 0 0 640 480;" xml:space="preserve">
<style type="text/css">
	.st0{enable-background:new    ;}
	.st1{fill:#611417;}
	.st2{clip-path:url(#SVGID_00000124862678951842459480000018195132459511262848_);enable-background:new    ;}
	.st3{fill:#7F1A1E;}
	.st4{fill:#7C191D;}
	.st5{fill:#78181C;}
	.st6{fill:#71171A;}
	.st7{clip-path:url(#SVGID_00000142854491558867092500000008148784550239423402_);enable-background:new    ;}
	.st8{fill:#681518;}
	.st9{fill:#6C1619;}
	.st10{clip-path:url(#SVGID_00000003101207698543297340000001246231723715463067_);enable-background:new    ;}
	.st11{clip-path:url(#SVGID_00000161612629923820086120000001642293616694703534_);enable-background:new    ;}
	.st12{clip-path:url(#SVGID_00000071560152536085784530000001030056716387733431_);enable-background:new    ;}
	.st13{fill:#70171A;}
	.st14{clip-path:url(#SVGID_00000142159437759940208230000004060156969688674217_);enable-background:new    ;}
	.st15{clip-path:url(#SVGID_00000104667553564522427110000006125457552597133481_);enable-background:new    ;}
	.st16{fill:#74171B;}
	.st17{clip-path:url(#SVGID_00000158002927647393635570000013479937894313159303_);enable-background:new    ;}
	.st18{clip-path:url(#SVGID_00000092439793616053132260000013038455586400614805_);enable-background:new    ;}
	.st19{fill:#641417;}
	.st20{clip-path:url(#SVGID_00000016035197720695141550000000233773819610454193_);enable-background:new    ;}
	.st21{clip-path:url(#SVGID_00000065055340309943953830000004135424432486301097_);enable-background:new    ;}
	.st22{clip-path:url(#SVGID_00000132067785613893199720000009991022012038912128_);enable-background:new    ;}
	.st23{clip-path:url(#SVGID_00000076605246248795034320000007054217415126047396_);enable-background:new    ;}
	.st24{clip-path:url(#SVGID_00000103229779865790558350000003865154612685141180_);enable-background:new    ;}
	.st25{clip-path:url(#SVGID_00000024712941027808239720000003590871861066174640_);enable-background:new    ;}
	.st26{clip-path:url(#SVGID_00000139974348773427982850000002016749785218483588_);enable-background:new    ;}
	.st27{clip-path:url(#SVGID_00000147936059434537181930000013059089492411319719_);enable-background:new    ;}
	.st28{clip-path:url(#SVGID_00000112591877439669722020000015743262778690161294_);enable-background:new    ;}
	.st29{clip-path:url(#SVGID_00000075846768243910706260000003570956706466528701_);enable-background:new    ;}
	.st30{clip-path:url(#SVGID_00000137111530299809711840000017368873800350874781_);enable-background:new    ;}
	.st31{clip-path:url(#SVGID_00000152946695811007392880000009300585434932418483_);enable-background:new    ;}
	.st32{fill:#AA2228;}
	.st33{clip-path:url(#SVGID_00000011012596511574308270000010708065355124997281_);enable-background:new    ;}
	.st34{clip-path:url(#SVGID_00000039132418429589441680000010507304047619091356_);enable-background:new    ;}
</style>
<g>
	<g>
		<g class="st0">
			<g>
				<path class="st1" d="M307.99,349.25c-0.13,0.19-0.26,0.38-0.41,0.57C307.73,349.63,307.86,349.44,307.99,349.25z"/>
			</g>
			<g>
				<path class="st1" d="M299.12,352.06c-0.06-0.03-0.11-0.07-0.17-0.1C299,351.99,299.06,352.02,299.12,352.06z"/>
			</g>
			<g>
				<path class="st1" d="M298.95,351.95c-0.11-0.06-0.21-0.13-0.32-0.2C298.73,351.82,298.84,351.89,298.95,351.95z"/>
			</g>
			<g>
				<path class="st1" d="M298.63,351.75c-0.06-0.04-0.12-0.09-0.19-0.14C298.5,351.66,298.57,351.71,298.63,351.75z"/>
			</g>
			<g>
				<path class="st1" d="M298.44,351.61c-0.1-0.07-0.2-0.15-0.29-0.24C298.24,351.46,298.34,351.54,298.44,351.61z"/>
			</g>
			<g>
				<path class="st1" d="M298.15,351.38c-0.05-0.04-0.1-0.09-0.15-0.13C298.05,351.29,298.1,351.33,298.15,351.38z"/>
			</g>
			<g>
				<path class="st1" d="M298,351.25c-0.14-0.13-0.28-0.27-0.41-0.42C297.72,350.98,297.85,351.11,298,351.25z"/>
			</g>
			<g class="st0">
				<defs>
					<path id="SVGID_1_" class="st0" d="M457.45,57.1l29.77,14.79c-1.08-0.53-2.26-0.7-3.42-0.54l-29.77-14.79
						C455.19,56.4,456.37,56.56,457.45,57.1z"/>
				</defs>
				<clipPath id="SVGID_00000108272073575613700780000007272586819340354450_">
					<use xlink:href="#SVGID_1_"  style="overflow:visible;"/>
				</clipPath>
				<g style="clip-path:url(#SVGID_00000108272073575613700780000007272586819340354450_);enable-background:new    ;">
					<path class="st3" d="M483.79,71.35l-29.77-14.79c0.41-0.06,0.83-0.07,1.24-0.05l29.77,14.79
						C484.62,71.27,484.21,71.29,483.79,71.35"/>
					<path class="st4" d="M485.03,71.3l-29.77-14.79c0.59,0.04,1.18,0.17,1.74,0.39l29.77,14.79
						C486.21,71.46,485.62,71.34,485.03,71.3"/>
					<path class="st5" d="M486.77,71.69L457.01,56.9c0.15,0.06,0.3,0.12,0.44,0.2l29.77,14.79
						C487.07,71.81,486.92,71.75,486.77,71.69"/>
				</g>
			</g>
			<g>
				<polygon class="st6" points="338.14,363.39 308.37,348.6 308.46,348.44 338.23,363.23 				"/>
			</g>
			<g class="st0">
				<defs>
					<polygon id="SVGID_00000047057213323879172990000012514510285044018304_" class="st0" points="338.14,363.4 308.37,348.61 
						308.37,348.6 338.14,363.39 					"/>
				</defs>
				<clipPath id="SVGID_00000034802007620347898120000005075872890502111403_">
					<use xlink:href="#SVGID_00000047057213323879172990000012514510285044018304_"  style="overflow:visible;"/>
				</clipPath>
				<g style="clip-path:url(#SVGID_00000034802007620347898120000005075872890502111403_);enable-background:new    ;">
					<polyline class="st8" points="338.14,363.4 308.37,348.61 308.37,348.61 338.14,363.4 338.14,363.4 					"/>
					<polyline class="st9" points="338.14,363.4 308.37,348.61 308.37,348.6 338.14,363.39 338.14,363.4 					"/>
					<polyline class="st8" points="338.14,363.39 308.37,348.6 308.37,348.6 338.14,363.39 338.14,363.39 					"/>
				</g>
			</g>
			<g>
				<path class="st1" d="M338.23,363.23c-0.03,0.06-0.06,0.11-0.09,0.17c0,0,0-0.01,0.01-0.01L338.23,363.23z"/>
			</g>
			<g class="st0">
				<defs>
					<path id="SVGID_00000083086249654494068890000006021788124550495367_" class="st0" d="M337.77,364.01l-29.77-14.79
						c0.13-0.2,0.25-0.4,0.36-0.61l29.77,14.79C338.02,363.61,337.9,363.81,337.77,364.01z"/>
				</defs>
				<clipPath id="SVGID_00000128468989220735042760000009636259761954031276_">
					<use xlink:href="#SVGID_00000083086249654494068890000006021788124550495367_"  style="overflow:visible;"/>
				</clipPath>
				<g style="clip-path:url(#SVGID_00000128468989220735042760000009636259761954031276_);enable-background:new    ;">
					<path class="st9" d="M337.77,364.01l-29.77-14.79c0.08-0.12,0.15-0.24,0.23-0.37L338,363.64
						C337.93,363.77,337.85,363.89,337.77,364.01"/>
					<path class="st8" d="M338,363.64l-29.77-14.79c0.05-0.08,0.09-0.16,0.14-0.24l29.77,14.79
						C338.09,363.48,338.05,363.56,338,363.64"/>
				</g>
			</g>
			<g>
				<path class="st1" d="M337.77,364.01c0.13-0.2,0.25-0.4,0.36-0.61C338.02,363.61,337.9,363.81,337.77,364.01z"/>
			</g>
			<g>
				<path class="st1" d="M337.76,364.03c0-0.01,0.01-0.01,0.02-0.02C337.77,364.02,337.76,364.03,337.76,364.03z"/>
			</g>
			<g class="st0">
				<defs>
					<path id="SVGID_00000059288297547145206900000004623176989496463762_" class="st0" d="M337.76,364.03l-29.77-14.79
						c0-0.01,0.01-0.01,0.02-0.02l29.77,14.79C337.77,364.02,337.76,364.03,337.76,364.03z"/>
				</defs>
				<clipPath id="SVGID_00000124137609718454763130000003744950364594073781_">
					<use xlink:href="#SVGID_00000059288297547145206900000004623176989496463762_"  style="overflow:visible;"/>
				</clipPath>
				<g style="clip-path:url(#SVGID_00000124137609718454763130000003744950364594073781_);enable-background:new    ;">
					<path class="st9" d="M337.76,364.03l-29.77-14.79c0-0.01,0.01-0.01,0.02-0.02l29.77,14.79
						C337.77,364.02,337.76,364.03,337.76,364.03"/>
				</g>
			</g>
			<g class="st0">
				<defs>
					<path id="SVGID_00000147933118280356718810000003161291570461831048_" class="st0" d="M307.59,349.82
						c0.14-0.18,0.28-0.37,0.41-0.57l29.77,14.79c-0.13,0.2-0.26,0.39-0.41,0.57C327.43,359.67,317.51,354.74,307.59,349.82z"/>
				</defs>
				<clipPath id="SVGID_00000000211284101136105690000012248624192550876599_">
					<use xlink:href="#SVGID_00000147933118280356718810000003161291570461831048_"  style="overflow:visible;"/>
				</clipPath>
				<g style="clip-path:url(#SVGID_00000000211284101136105690000012248624192550876599_);enable-background:new    ;">
					<path class="st13" d="M337.35,364.6l-29.77-14.79c0.01-0.01,0.02-0.02,0.03-0.04l29.77,14.79
						C337.37,364.58,337.36,364.59,337.35,364.6"/>
					<path class="st9" d="M337.38,364.57l-29.77-14.79c0.13-0.17,0.26-0.35,0.38-0.53l29.77,14.79
						C337.64,364.22,337.51,364.39,337.38,364.57"/>
				</g>
			</g>
			<g>
				<path class="st1" d="M335.13,366.57c-0.51,0.3-1.04,0.54-1.57,0.7C334.1,367.11,334.63,366.87,335.13,366.57z"/>
			</g>
			<g class="st0">
				<defs>
					<path id="SVGID_00000048487251722336740700000007711934484631334068_" class="st0" d="M303.8,352.49
						c0.54-0.17,1.07-0.4,1.57-0.7l29.77,14.79c-0.5,0.3-1.03,0.53-1.57,0.7c-9.89-4.91-19.78-9.83-29.67-14.74
						c9.89,4.91,19.78,9.83,29.67,14.74c0,0,0,0,0,0C324.63,362.84,312.73,356.92,303.8,352.49z"/>
				</defs>
				<clipPath id="SVGID_00000180363952767009259180000005452816565288282012_">
					<use xlink:href="#SVGID_00000048487251722336740700000007711934484631334068_"  style="overflow:visible;"/>
				</clipPath>
				<g style="clip-path:url(#SVGID_00000180363952767009259180000005452816565288282012_);enable-background:new    ;">
					<path class="st4" d="M333.56,367.27l-29.77-14.79c0.45-0.14,0.9-0.33,1.33-0.56l29.77,14.79
						C334.46,366.95,334.02,367.13,333.56,367.27"/>
					<path class="st5" d="M334.89,366.71l-29.77-14.79c0.08-0.04,0.16-0.09,0.24-0.14l29.77,14.79
						C335.05,366.62,334.97,366.67,334.89,366.71"/>
				</g>
			</g>
			<g class="st0">
				<defs>
					<path id="SVGID_00000029039296390906666200000014564110281494321308_" class="st0" d="M478.19,75.46l-29.77-14.79
						c1.26-2.33,3.4-3.81,5.61-4.11l29.77,14.79C481.59,71.65,479.44,73.12,478.19,75.46z"/>
				</defs>
				<clipPath id="SVGID_00000013164432826041964260000009826645644088988320_">
					<use xlink:href="#SVGID_00000029039296390906666200000014564110281494321308_"  style="overflow:visible;"/>
				</clipPath>
				<g style="clip-path:url(#SVGID_00000013164432826041964260000009826645644088988320_);enable-background:new    ;">
					<path class="st8" d="M478.19,75.46l-29.77-14.79c0.05-0.08,0.09-0.17,0.14-0.25l29.77,14.79
						C478.28,75.29,478.23,75.37,478.19,75.46"/>
					<path class="st9" d="M478.33,75.21l-29.77-14.79c0.19-0.33,0.4-0.63,0.62-0.92l29.77,14.79
						C478.72,74.57,478.52,74.88,478.33,75.21"/>
					<path class="st13" d="M478.94,74.28L449.18,59.5c0.21-0.28,0.44-0.54,0.68-0.78l29.77,14.79
						C479.39,73.74,479.16,74,478.94,74.28"/>
					<path class="st16" d="M479.63,73.5l-29.77-14.79c0.25-0.26,0.52-0.49,0.8-0.71l29.77,14.79
						C480.15,73.01,479.88,73.25,479.63,73.5"/>
					<path class="st5" d="M480.42,72.8l-29.77-14.79c0.33-0.25,0.67-0.47,1.02-0.67l29.77,14.79
						C481.09,72.32,480.75,72.54,480.42,72.8"/>
					<path class="st4" d="M481.44,72.13l-29.77-14.79c0.58-0.31,1.19-0.55,1.8-0.69l29.77,14.79
						C482.63,71.58,482.02,71.82,481.44,72.13"/>
					<path class="st3" d="M483.25,71.44l-29.77-14.79c0.18-0.04,0.36-0.07,0.55-0.1l29.77,14.79
						C483.61,71.37,483.43,71.4,483.25,71.44"/>
				</g>
			</g>
			<g class="st0">
				<defs>
					<path id="SVGID_00000022545005687773181300000013966929225819467166_" class="st0" d="M329.11,366.96l-29.77-14.79
						c0.1,0.05,0.21,0.1,0.31,0.14l29.77,14.79C329.32,367.06,329.21,367.01,329.11,366.96z"/>
				</defs>
				<clipPath id="SVGID_00000101097120424455296540000001110363615650876801_">
					<use xlink:href="#SVGID_00000022545005687773181300000013966929225819467166_"  style="overflow:visible;"/>
				</clipPath>
				<g style="clip-path:url(#SVGID_00000101097120424455296540000001110363615650876801_);enable-background:new    ;">
					<path class="st5" d="M329.11,366.96l-29.77-14.79c0.1,0.05,0.21,0.1,0.31,0.14l29.77,14.79
						C329.32,367.06,329.21,367.01,329.11,366.96"/>
				</g>
			</g>
			<g class="st0">
				<defs>
					<path id="SVGID_00000067197348115434701570000016891002282739851168_" class="st0" d="M329.12,366.97l-29.77-14.79
						c-0.08-0.04-0.16-0.08-0.23-0.12l29.77,14.79C328.96,366.89,329.04,366.93,329.12,366.97z"/>
				</defs>
				<clipPath id="SVGID_00000119081774379790256190000017486142524687736241_">
					<use xlink:href="#SVGID_00000067197348115434701570000016891002282739851168_"  style="overflow:visible;"/>
				</clipPath>
				<g style="clip-path:url(#SVGID_00000119081774379790256190000017486142524687736241_);enable-background:new    ;">
					<path class="st19" d="M329.12,366.97l-29.77-14.79c-0.08-0.04-0.16-0.08-0.23-0.12l29.77,14.79
						C328.96,366.89,329.04,366.93,329.12,366.97"/>
				</g>
			</g>
			<g>
				<path class="st1" d="M328.89,366.85c0.17,0.1,0.35,0.18,0.53,0.26C329.24,367.03,329.06,366.94,328.89,366.85
					C328.89,366.84,328.89,366.85,328.89,366.85z"/>
			</g>
			<g class="st0">
				<defs>
					<path id="SVGID_00000152953504947402758970000005879947834926854803_" class="st0" d="M329.52,367.15l-29.77-14.79
						c-1.22-0.62-1.74-1.04-2.17-1.53c-1.88-2.12-2.21-5.56-0.62-8.52l29.77,14.79c-1.59,2.96-1.26,6.4,0.62,8.52
						C327.79,366.1,328.3,366.52,329.52,367.15z"/>
				</defs>
				<clipPath id="SVGID_00000152254906364388604290000015518998057062437016_">
					<use xlink:href="#SVGID_00000152953504947402758970000005879947834926854803_"  style="overflow:visible;"/>
				</clipPath>
				<g style="clip-path:url(#SVGID_00000152254906364388604290000015518998057062437016_);enable-background:new    ;">
					<path class="st19" d="M329.52,367.15l-29.77-14.79c-1.22-0.62-1.74-1.04-2.17-1.53c-1.68-1.9-2.13-4.86-1.06-7.58l29.77,14.79
						c-1.07,2.72-0.63,5.68,1.06,7.58C327.79,366.1,328.3,366.52,329.52,367.15"/>
					<path class="st8" d="M326.3,358.03l-29.77-14.79c0.12-0.32,0.27-0.63,0.43-0.94l29.77,14.79
						C326.57,357.4,326.42,357.72,326.3,358.03"/>
				</g>
			</g>
			<g class="st0">
				<defs>
					<path id="SVGID_00000152245644940539793400000009349605842534870414_" class="st0" d="M328.89,366.84l-29.77-14.79
						c-0.06-0.03-0.11-0.07-0.17-0.1l29.77,14.79C328.77,366.77,328.83,366.81,328.89,366.84z"/>
				</defs>
				<clipPath id="SVGID_00000093856954599634883720000002791661324825706649_">
					<use xlink:href="#SVGID_00000152245644940539793400000009349605842534870414_"  style="overflow:visible;"/>
				</clipPath>
				<g style="clip-path:url(#SVGID_00000093856954599634883720000002791661324825706649_);enable-background:new    ;">
					<path class="st19" d="M328.89,366.84l-29.77-14.79c-0.06-0.03-0.11-0.07-0.17-0.1l29.77,14.79
						C328.77,366.77,328.83,366.81,328.89,366.84"/>
				</g>
			</g>
			<g class="st0">
				<defs>
					<path id="SVGID_00000170965294778367832880000015173358345044481438_" class="st0" d="M328.71,366.74l-29.77-14.79
						c-0.11-0.06-0.21-0.13-0.32-0.2l29.77,14.79C328.5,366.61,328.61,366.67,328.71,366.74z"/>
				</defs>
				<clipPath id="SVGID_00000003063050702056507390000005655086546155822978_">
					<use xlink:href="#SVGID_00000170965294778367832880000015173358345044481438_"  style="overflow:visible;"/>
				</clipPath>
				<g style="clip-path:url(#SVGID_00000003063050702056507390000005655086546155822978_);enable-background:new    ;">
					<path class="st19" d="M328.71,366.74l-29.77-14.79c-0.11-0.06-0.21-0.13-0.32-0.2l29.77,14.79
						C328.5,366.61,328.61,366.67,328.71,366.74"/>
				</g>
			</g>
			<g class="st0">
				<defs>
					<path id="SVGID_00000132067763220098404280000000786270406095588271_" class="st0" d="M328.4,366.54l-29.77-14.79
						c-0.06-0.04-0.12-0.09-0.19-0.14l29.77,14.79C328.27,366.45,328.33,366.49,328.4,366.54z"/>
				</defs>
				<clipPath id="SVGID_00000099661134605388862890000017432874288455861180_">
					<use xlink:href="#SVGID_00000132067763220098404280000000786270406095588271_"  style="overflow:visible;"/>
				</clipPath>
				<g style="clip-path:url(#SVGID_00000099661134605388862890000017432874288455861180_);enable-background:new    ;">
					<path class="st19" d="M328.4,366.54l-29.77-14.79c-0.06-0.04-0.12-0.09-0.19-0.14l29.77,14.79
						C328.27,366.45,328.33,366.49,328.4,366.54"/>
				</g>
			</g>
			<g class="st0">
				<defs>
					<path id="SVGID_00000103262370908288318930000010557768102833106090_" class="st0" d="M328.21,366.4l-29.77-14.79
						c-0.1-0.07-0.2-0.15-0.29-0.24l29.77,14.79C328.01,366.25,328.11,366.32,328.21,366.4z"/>
				</defs>
				<clipPath id="SVGID_00000151529401468259491490000006216353080507515300_">
					<use xlink:href="#SVGID_00000103262370908288318930000010557768102833106090_"  style="overflow:visible;"/>
				</clipPath>
				<g style="clip-path:url(#SVGID_00000151529401468259491490000006216353080507515300_);enable-background:new    ;">
					<path class="st19" d="M328.21,366.4l-29.77-14.79c-0.1-0.07-0.2-0.15-0.29-0.24l29.77,14.79
						C328.01,366.25,328.11,366.32,328.21,366.4"/>
				</g>
			</g>
			<g class="st0">
				<defs>
					<path id="SVGID_00000107566673239367509680000016784595856305316528_" class="st0" d="M327.92,366.16l-29.77-14.79
						c-0.05-0.04-0.1-0.09-0.15-0.13l29.77,14.79C327.82,366.08,327.87,366.12,327.92,366.16z"/>
				</defs>
				<clipPath id="SVGID_00000070801993666463611940000004198510981708909741_">
					<use xlink:href="#SVGID_00000107566673239367509680000016784595856305316528_"  style="overflow:visible;"/>
				</clipPath>
				<g style="clip-path:url(#SVGID_00000070801993666463611940000004198510981708909741_);enable-background:new    ;">
					<path class="st19" d="M327.92,366.16l-29.77-14.79c-0.05-0.04-0.1-0.09-0.15-0.13l29.77,14.79
						C327.82,366.08,327.87,366.12,327.92,366.16"/>
				</g>
			</g>
			<g class="st0">
				<defs>
					<path id="SVGID_00000016070457387526486580000000078629827952865979_" class="st0" d="M297.96,351.21
						c9.92,4.93,19.85,9.86,29.77,14.79c0.01,0.01,0.03,0.03,0.04,0.04L298,351.25C297.98,351.23,297.97,351.22,297.96,351.21z"/>
				</defs>
				<clipPath id="SVGID_00000111151733683957762140000018378881676296328369_">
					<use xlink:href="#SVGID_00000016070457387526486580000000078629827952865979_"  style="overflow:visible;"/>
				</clipPath>
				<g style="clip-path:url(#SVGID_00000111151733683957762140000018378881676296328369_);enable-background:new    ;">
					<path class="st19" d="M327.77,366.03L298,351.25c-0.14-0.13-0.28-0.27-0.41-0.42l29.77,14.79
						C327.49,365.76,327.62,365.9,327.77,366.03"/>
				</g>
			</g>
			<g class="st0">
				<defs>
					<path id="SVGID_00000049909132953383831580000007808488926955992751_" class="st0" d="M297.96,351.21
						C297.96,351.21,297.96,351.2,297.96,351.21c2.39,1.18,4.77,2.37,7.16,3.56c2.57,1.28,5.15,2.56,7.72,3.84
						c1.17,0.58,2.73,1.35,3.9,1.93c1.15,0.57,2.68,1.33,3.83,1.9c2.39,1.19,4.77,2.37,7.16,3.56c0,0,0,0,0,0
						c-0.94-0.47-2.19-1.09-3.13-1.56c-1-0.5-2.33-1.16-3.32-1.65c-1.03-0.51-2.41-1.2-3.45-1.71c-1.05-0.52-2.46-1.22-3.51-1.74
						s-2.46-1.22-3.51-1.74c-1.03-0.51-2.41-1.2-3.45-1.71c-1-0.5-2.33-1.16-3.32-1.65c-0.94-0.47-2.19-1.09-3.13-1.56
						c-0.1-0.05-0.24-0.12-0.34-0.17c-0.11-0.05-0.25-0.13-0.36-0.18c-0.11-0.06-0.26-0.13-0.38-0.19
						c-0.12-0.06-0.27-0.13-0.38-0.19c-0.12-0.06-0.27-0.13-0.38-0.19c-0.11-0.06-0.26-0.13-0.38-0.19
						c-0.11-0.05-0.25-0.13-0.36-0.18C298.2,351.33,298.06,351.26,297.96,351.21z"/>
				</defs>
				<clipPath id="SVGID_00000164512746593056551220000014822107585597727917_">
					<use xlink:href="#SVGID_00000049909132953383831580000007808488926955992751_"  style="overflow:visible;"/>
				</clipPath>
				<g style="clip-path:url(#SVGID_00000164512746593056551220000014822107585597727917_);enable-background:new    ;">
					<path class="st19" d="M327.77,366.03L298,351.25c-0.14-0.13-0.28-0.27-0.41-0.42l29.77,14.79
						C327.49,365.76,327.62,365.9,327.77,366.03"/>
				</g>
			</g>
			<g class="st0">
				<defs>
					<path id="SVGID_00000026165227043565382030000017893110910475906468_" class="st0" d="M297.95,351.2
						c-0.12-0.11-0.24-0.23-0.36-0.36c9.92,4.93,19.85,9.86,29.77,14.79c0.11,0.13,0.23,0.25,0.36,0.36
						c-1.04-0.52-2.43-1.21-3.48-1.73c-1.11-0.55-2.58-1.28-3.69-1.83c-1.15-0.57-2.68-1.33-3.83-1.9c-1.17-0.58-2.73-1.35-3.9-1.93
						c-1.17-0.58-2.73-1.35-3.9-1.93c-0.58-0.29-1.35-0.67-1.93-0.96c-1.13-0.56-2.64-1.31-3.77-1.87c-0.55-0.27-1.28-0.63-1.82-0.9
						C300.39,352.41,298.91,351.87,297.95,351.2z"/>
				</defs>
				<clipPath id="SVGID_00000092440615882660669260000010509912487103663039_">
					<use xlink:href="#SVGID_00000026165227043565382030000017893110910475906468_"  style="overflow:visible;"/>
				</clipPath>
				<g style="clip-path:url(#SVGID_00000092440615882660669260000010509912487103663039_);enable-background:new    ;">
					<path class="st19" d="M327.77,366.03L298,351.25c-0.14-0.13-0.28-0.27-0.41-0.42l29.77,14.79
						C327.49,365.76,327.62,365.9,327.77,366.03"/>
				</g>
			</g>
			<g class="st0">
				<defs>
					<path id="SVGID_00000111876753113836650410000011023413148457215417_" class="st0" d="M297.6,350.84
						C297.6,350.84,297.6,350.84,297.6,350.84c9.92,4.93,19.84,9.86,29.77,14.79c0,0,0,0,0,0c-1.04-0.52-2.43-1.21-3.48-1.73
						c-1.11-0.55-2.58-1.28-3.69-1.83c-1.15-0.57-2.68-1.33-3.83-1.9c-1.17-0.58-2.73-1.35-3.9-1.93c-1.17-0.58-2.73-1.35-3.9-1.93
						c-0.58-0.29-1.35-0.67-1.93-0.96c-1.13-0.56-2.64-1.31-3.77-1.87c-1.08-0.54-2.51-1.25-3.59-1.78
						C298.79,351.44,298.05,351.19,297.6,350.84z"/>
				</defs>
				<clipPath id="SVGID_00000163040747898437277200000002979144837096667022_">
					<use xlink:href="#SVGID_00000111876753113836650410000011023413148457215417_"  style="overflow:visible;"/>
				</clipPath>
				<g style="clip-path:url(#SVGID_00000163040747898437277200000002979144837096667022_);enable-background:new    ;">
					<path class="st19" d="M327.77,366.03L298,351.25c-0.14-0.13-0.28-0.27-0.41-0.42l29.77,14.79
						C327.49,365.76,327.62,365.9,327.77,366.03"/>
				</g>
			</g>
			<g class="st0">
				<defs>
					<path id="SVGID_00000049188788690398053680000002677802831828057233_" class="st0" d="M297.6,350.84c0,0-0.01-0.01-0.01-0.01
						l29.77,14.79c0,0,0.01,0.01,0.01,0.01c-1.04-0.52-2.43-1.21-3.48-1.73c-1.11-0.55-2.58-1.28-3.69-1.83
						c-1.15-0.57-2.68-1.33-3.83-1.9c-1.17-0.58-2.73-1.35-3.9-1.93c-1.17-0.58-2.73-1.35-3.9-1.93c-1.15-0.57-2.68-1.33-3.83-1.9
						c-1.11-0.55-2.58-1.28-3.69-1.83C300.03,352.05,298.52,351.55,297.6,350.84z"/>
				</defs>
				<clipPath id="SVGID_00000032614296765158292240000007975196499114097541_">
					<use xlink:href="#SVGID_00000049188788690398053680000002677802831828057233_"  style="overflow:visible;"/>
				</clipPath>
				<g style="clip-path:url(#SVGID_00000032614296765158292240000007975196499114097541_);enable-background:new    ;">
					<path class="st19" d="M327.77,366.03L298,351.25c-0.14-0.13-0.28-0.27-0.41-0.42l29.77,14.79
						C327.49,365.76,327.62,365.9,327.77,366.03"/>
				</g>
			</g>
			<g class="st0">
				<defs>
					<path id="SVGID_00000049923409022005245420000010657977997535942546_" class="st0" d="M327.35,365.61l-29.77-14.79
						c-0.12-0.13-0.23-0.27-0.34-0.41l29.77,14.79C327.12,365.34,327.23,365.48,327.35,365.61z"/>
				</defs>
				<clipPath id="SVGID_00000028297414472479637270000008646351701257857948_">
					<use xlink:href="#SVGID_00000049923409022005245420000010657977997535942546_"  style="overflow:visible;"/>
				</clipPath>
				<g style="clip-path:url(#SVGID_00000028297414472479637270000008646351701257857948_);enable-background:new    ;">
					<path class="st19" d="M327.35,365.61l-29.77-14.79c-0.12-0.13-0.23-0.27-0.34-0.41l29.77,14.79
						C327.12,365.34,327.23,365.48,327.35,365.61"/>
				</g>
			</g>
			<g>
				<polygon class="st6" points="331.99,347.32 302.22,332.53 448.42,60.67 478.19,75.46 				"/>
			</g>
			<g>
				<polygon class="st6" points="326.73,357.09 296.97,342.31 302.22,332.53 331.99,347.32 				"/>
			</g>
			<g>
				<path class="st32" d="M483.79,71.35c1.24-0.17,2.51,0.03,3.64,0.65c3.15,1.74,4.11,6.11,2.15,9.75L338.23,363.23
					c-0.32,0.6-0.59,1-0.88,1.38c-0.69,0.84-1.29,1.37-1.93,1.79c-0.79,0.48-1.32,0.71-1.86,0.88c-0.54,0.15-0.78,0.19-1.03,0.23
					c-1.02,0.14-2.05,0.03-3.01-0.35c-1.22-0.62-1.74-1.04-2.17-1.53c-1.88-2.12-2.21-5.56-0.62-8.52l5.26-9.78L478.19,75.46
					C479.44,73.12,481.59,71.65,483.79,71.35z"/>
			</g>
			<g>
				<polygon class="st1" points="327.01,365.2 297.24,350.41 179.31,190.28 209.07,205.06 				"/>
			</g>
			<g class="st0">
				<defs>
					<path id="SVGID_00000004509610563537502620000004572803260841833151_" class="st0" d="M188.07,178.6l29.77,14.79
						c-1.05-0.52-2.24-0.7-3.44-0.54l-29.77-14.79C185.83,177.9,187.02,178.08,188.07,178.6z"/>
				</defs>
				<clipPath id="SVGID_00000039827597793541253040000009236146773488479905_">
					<use xlink:href="#SVGID_00000004509610563537502620000004572803260841833151_"  style="overflow:visible;"/>
				</clipPath>
				<g style="clip-path:url(#SVGID_00000039827597793541253040000009236146773488479905_);enable-background:new    ;">
					<path class="st3" d="M214.4,192.85l-29.77-14.79c0.42-0.06,0.84-0.07,1.25-0.05l29.77,14.79
						C215.24,192.78,214.82,192.79,214.4,192.85"/>
					<path class="st4" d="M215.65,192.8l-29.77-14.79c0.6,0.04,1.19,0.17,1.75,0.39l29.77,14.79
						C216.85,192.97,216.26,192.84,215.65,192.8"/>
					<path class="st5" d="M217.4,193.19l-29.77-14.79c0.15,0.06,0.29,0.12,0.44,0.19l29.77,14.79
						C217.7,193.32,217.55,193.25,217.4,193.19"/>
				</g>
			</g>
			<g class="st0">
				<defs>
					<path id="SVGID_00000101809021024406278870000014847178933183430786_" class="st0" d="M209.07,205.06l-29.77-14.79
						c-2.19-2.98-1.53-7.6,1.46-10.34c1.17-1.07,2.52-1.69,3.87-1.87l29.77,14.79c-1.34,0.19-2.7,0.81-3.87,1.87
						C207.54,197.46,206.89,202.08,209.07,205.06z"/>
				</defs>
				<clipPath id="SVGID_00000092456634178390737890000010377388827312169638_">
					<use xlink:href="#SVGID_00000101809021024406278870000014847178933183430786_"  style="overflow:visible;"/>
				</clipPath>
				<g style="clip-path:url(#SVGID_00000092456634178390737890000010377388827312169638_);enable-background:new    ;">
					<path class="st19" d="M209.07,205.06l-29.77-14.79c-1.47-2-1.66-4.75-0.71-7.17l29.77,14.79
						C207.42,200.31,207.6,203.06,209.07,205.06"/>
					<path class="st8" d="M208.36,197.89L178.6,183.1c0.16-0.4,0.35-0.8,0.57-1.18l29.77,14.79
						C208.71,197.09,208.52,197.49,208.36,197.89"/>
					<path class="st9" d="M208.93,196.71l-29.77-14.79c0.18-0.32,0.39-0.62,0.61-0.91l29.77,14.79
						C209.32,196.09,209.12,196.4,208.93,196.71"/>
					<path class="st13" d="M209.54,195.8l-29.77-14.79c0.21-0.27,0.44-0.54,0.69-0.79l29.77,14.79
						C209.98,195.26,209.76,195.53,209.54,195.8"/>
					<path class="st16" d="M210.23,195.01l-29.77-14.79c0.1-0.1,0.2-0.2,0.3-0.29c0.17-0.15,0.33-0.29,0.51-0.43l29.77,14.79
						c-0.17,0.13-0.34,0.27-0.51,0.43C210.43,194.82,210.33,194.91,210.23,195.01"/>
					<path class="st5" d="M211.04,194.3l-29.77-14.79c0.33-0.25,0.67-0.48,1.02-0.67l29.77,14.79
						C211.71,193.82,211.37,194.04,211.04,194.3"/>
					<path class="st4" d="M212.06,193.63l-29.77-14.79c0.58-0.32,1.18-0.54,1.78-0.68l29.77,14.79
						C213.24,193.09,212.64,193.32,212.06,193.63"/>
					<path class="st3" d="M213.84,192.95l-29.77-14.79c0.19-0.04,0.37-0.08,0.56-0.1l29.77,14.79
						C214.21,192.88,214.03,192.91,213.84,192.95"/>
				</g>
			</g>
			<g>
				<path class="st32" d="M214.4,192.85c2.1-0.29,4.19,0.49,5.52,2.3l112.07,152.16l-5.26,9.78c-1.59,2.96-1.26,6.4,0.62,8.52
					c-0.12-0.13-0.23-0.27-0.34-0.41L209.07,205.06c-2.19-2.98-1.53-7.6,1.46-10.34C211.7,193.66,213.06,193.04,214.4,192.85z"/>
			</g>
		</g>
	</g>
</g>
</svg>
